<svg xmlns="http://www.w3.org/2000/svg" width="446" height="446" fill="none"><g clip-path="url('#a')"><g clip-path="url('#b')"><path fill="#3D424B" d="M83.648 326.026a6.506 6.506 0 0 1 7.851-4.797 6.505 6.505 0 1 1-3.052 12.646 6.505 6.505 0 0 1-4.799-7.849Z"></path><path fill="#3D424B" fill-rule="evenodd" d="m122.448 291.679 13.189 20.918c.346.549.656 1.159.927 1.811l-4.43 9.175-20.12-4.857c-4.199-1.014-6.79-5.253-5.777-9.452l4.708-19.506-27.306-6.591a2.614 2.614 0 0 0-3.151 1.925l-15.873 65.761 15.016-9.068a2.61 2.61 0 0 1 3.578.873l5.21 8.524 19.983-12.209a2.609 2.609 0 0 1 3.59.866l6.866 11.233-2.7 5.595-7.261-11.878-17.755 10.848 3.156 5.163c.196.32.312.665.36 1.013l16.963 4.252-2.255 4.67-44.284-10.689c-4.2-1.014-6.79-5.254-5.777-9.452l16.106-66.727c1.014-4.198 5.254-6.789 9.453-5.775l28.126 6.789c3.425.826 7.579 3.808 9.458 6.788Zm-4.418 2.784c-.495-.785-1.324-1.625-2.273-2.37l-4.443 18.407a2.613 2.613 0 0 0 1.925 3.151l19.064 4.601c-.246-1.1-.617-2.13-1.084-2.87l-13.189-20.919Zm-37.922 53.144-12.665 7.647 20.34 4.91-7.675-12.557Z" clip-rule="evenodd"></path><path fill="#3D424B" d="M143.374 350.195a6.507 6.507 0 0 0-8.658 3.115 6.507 6.507 0 0 0 11.773 5.542 6.507 6.507 0 0 0-3.115-8.657Zm44.971.449-8.699-23.149c-1.239-3.297-4.706-7.056-7.894-8.556l-26.178-12.323c-3.909-1.84-8.584-.157-10.424 3.75l-29.235 62.107c-1.839 3.907-.156 8.583 3.752 10.423l48.994 23.062c3.908 1.839 8.584.157 10.423-3.75l18.792-39.922c1.536-3.262 1.737-8.267.469-11.642Zm-15.336-24.093c.78.922 1.422 1.911 1.748 2.78l8.699 23.149c.308.819.464 1.903.483 3.03l-17.744-8.352a2.612 2.612 0 0 1-1.25-3.474l8.064-17.133Zm-60.061 52.118 13.948-4.936 4.984 13.848-18.932-8.912Zm47.937 22.565-22.607-10.641a2.589 2.589 0 0 0-.147-1.065l-2.05-5.694 19.579-7.043 8.482 23.563a2.611 2.611 0 0 1-3.257.88Zm6.421-7.51-7.617-21.158a2.613 2.613 0 0 0-3.341-1.572l-22.035 7.927-3.384-9.399a2.612 2.612 0 0 0-3.328-1.578l-16.537 5.853 28.811-61.207a2.615 2.615 0 0 1 3.475-1.25l25.416 11.964-8.546 18.155c-1.84 3.908-.156 8.583 3.752 10.423l18.853 8.874-15.519 32.968ZM314.807 87.765a6.505 6.505 0 1 0-3.92 12.406 6.505 6.505 0 0 0 3.92-12.406Zm44.627-5.567L347.72 60.42c-1.669-3.103-5.608-6.364-8.968-7.425l-27.591-8.712c-4.119-1.3-8.528.991-9.828 5.11l-20.67 65.457c-1.301 4.118.992 8.527 5.111 9.828l51.637 16.305c4.119 1.301 8.528-.991 9.829-5.109l13.286-42.076c1.086-3.438.616-8.425-1.092-11.6Zm-18.418-21.826c.896.808 1.664 1.703 2.104 2.52l11.715 21.779c.415.77.715 1.823.884 2.938l-18.701-5.905a2.613 2.613 0 0 1-1.704-3.276l5.702-18.056Zm-52.555 59.679 13.162-6.756 6.791 13.056-19.953-6.3Zm50.523 15.953-23.826-7.523a2.61 2.61 0 0 0-.289-1.036l-2.792-5.368 18.461-9.598 11.556 22.218a2.61 2.61 0 0 1-3.11 1.307Zm5.359-8.301-10.376-19.949a2.615 2.615 0 0 0-3.522-1.112l-20.777 10.802-4.61-8.863a2.613 2.613 0 0 0-3.51-1.118l-15.606 8.011 20.371-64.51a2.614 2.614 0 0 1 3.276-1.702l26.787 8.459-6.042 19.134c-1.301 4.119.993 8.527 5.111 9.828l19.871 6.274-10.973 34.746Z"></path><path fill="#6B7280" d="M61.064 188.261c4.328-2.164 8-5.378 12.329-7.345 5.246-2.361 7.148-7.345 10.164-11.542.066.132.328.394.394.656 1.77 5.312 3.541 10.624 5.18 16.001.525 1.771 1.115 3.476 2.427 4.722 3.016 2.754 5.64 5.836 8.263 8.918 1.442 1.771 3.082 3.41 5.049 5.64-.131-1.64-.262-2.623-.328-3.672-.852-7.017-4.721-12.854-7.672-19.018-1.64-3.344-4.722-6.164-7.214-9.115-1.64-1.968-3.017-4.328-5.115-5.837-.918-.655-.984-1.246-.852-2.164.72-5.115 1.311-10.295 1.967-15.476.262-2.033 0-4.131.721-6.558 2.82 4.328 5.115 8.525 8.722 11.739.525.459.721 1.246 1.05 1.901 1.704 3.017 2.885 6.361 5.311 8.984 3.476 3.738 7.607 7.017 10.755 11.804-.656-4.787-2.82-8.59-3.345-12.787-.983-7.542-6.426-11.935-11.279-16.723-2.623-2.623-6.361-3.147-9.443-4.918-1.443-.852-2.164-1.705-2.23-3.541-.131-6.558-.459-13.116-1.574-19.673-.983-5.771-1.311-11.673-2.492-17.444.59.59 1.05 1.246 1.443 1.902 2.689 4.656 4.853 9.574 6.82 14.558 1.05 2.557 1.836 5.246 3.738 7.345 4.46 5.049 10.492 8.459 14.296 14.427.525-1.312.328-2.164.197-3.017-1.05-7.017-4.263-13.312-7.017-19.673-1.508-3.41-4.131-6.033-7.476-7.804-4.59-2.492-8.132-6.164-11.87-9.64-.327-.328-.72-.721-.852-1.18-1.64-6.492-3.213-13.05-4.787-19.542 1.508 1.574 2.754 3.213 3.803 5.05 3.082 5.245 7.214 9.377 12.722 12.065 4.329 2.099 8.001 4.853 11.017 8.657 1.771 2.164 3.738 4.131 5.312 6.492-.459-2.427-1.18-4.722-1.639-7.083-.328-1.705-.984-3.278-2.033-4.656-3.738-4.524-7.082-9.312-10.361-14.164-1.837-2.755-4.46-4.197-7.542-4.984-3.41-.853-6.754-1.77-10.033-3.017-1.64-.59-2.296-1.443-2.755-2.95a75.297 75.297 0 0 0-4.59-12.33c-.393-.786-.656-2.032-2.033-1.573-1.246.393-.984 1.508-1.18 2.426-.131.721.393 1.246.656 1.77 1.704 3.673 3.344 7.41 5.115 11.018.918 1.77.459 2.885-1.246 3.672-3.87 1.836-7.673 3.935-11.608 5.64-3.344 1.443-5.836 3.803-7.607 6.885-1.18 1.968-2.23 4-3.344 5.968-1.18 1.967-1.836 4.066-1.902 6.427-.065 3.344-.262 6.623-1.18 9.902-.656 2.492-.525 5.246-.722 7.869.263.131.525.197.722.328 8.46-14.755 18.296-28.46 28.264-42.363.459.656 1.18 1.18 1.246 1.77.328 4 1.836 7.739 2.82 11.542.852 3.213.13 5.574-1.968 7.804-2.36 2.492-4.918 4.721-7.082 7.345-4.59 5.508-8 12.066-13.51 16.919-.261.196-.327.59-.524.852-3.607 5.837-3.344 12.657-4.59 19.214 2.557-3.213 6.164-4.983 9.508-7.082 1.902-1.246 3.148-2.754 4-4.722 1.64-3.737 3.476-7.344 6.034-10.558 3.016-3.738 5.05-7.934 6.099-12.59.852-3.804 2.754-7.28 3.344-11.28.525.853.721 1.836.918 2.754 2.23 10.624 3.672 21.313 4.132 32.133.327 7.476 1.77 6.886-6.755 9.903-.262.065-.459.131-.656.262-4.656 2.23-9.836 3.804-12.394 8.853-.852 1.705-1.967 3.213-3.41 4.394-4.328 3.607-5.05 8.656-5.968 13.64 10.82-7.935 22.56-14.624 29.38-27.28.065.983.13 1.377.13 1.705 0 6.229-1.573 12.263-1.836 18.427-.197 4-2.557 5.443-5.64 6.558-1.245.459-2.491.655-3.737 1.049-3.345.918-5.771 2.82-7.87 5.705-2.557 3.41-4.459 7.214-6.754 10.886.656-.131 1.246-.852 1.967-1.18Z"></path><path fill="#6B7280" d="M54.31 249.379c4.853-4 10.427-7.148 11.148-14.427.394-4 2.164-7.476 4.984-11.279-.196 6.885.918 12.787 4 19.017.263-2.361.263-4.066.656-5.639.918-3.607.328-7.148-1.64-10.099-2.425-3.673-2.622-7.083-1.114-11.083 1.443-4.066 2.36-8.328 3.541-12.46.787 3.213.984 6.427 1.312 9.574.459 4.001.13 8.198 2.885 11.608 1.968 2.492 3.87 4.984 4.066 8.394 1.377-4.197 2.23-8.329.656-12.657-.787-2.098-1.312-4.394-1.836-6.558-.525-2.229-1.377-4.328-2.951-6.098-2.755-3.214-4.722-6.624-2.623-11.017.524-1.05.655-2.361.786-3.542.263-1.836 1.05-1.705 2.164-.721 2.033 9.64 8.854 16.854 12.854 25.51.262-2.951 1.18-5.837.13-8.525-1.245-3.279-2.032-6.689-3.147-9.968-.525-1.64-1.246-3.213-2.885-4.066-2.099-2.23-5.18-2.885-7.607-4.525-1.312-.918-1.64-.59-2.099.59-7.41 1.181-13.64 4.591-18.69 10.099 7.083-1.049 13.444-3.475 18.231-8.984.066.328.263.656.197.918-.918 3.673-1.836 7.411-2.951 11.083-.393 1.18-1.443 2.164-2.689 2.623-1.377.525-2.689 1.18-4.066 1.574-5.705 1.705-8.394 6.164-10.492 11.542 2.885-1.246 5.443-2.361 7.214-4.722.72-.984 1.639-2.164 2.688-2.361 3.017-.656 4.656-2.885 6.624-5.377-.722 2.557-1.509 4.721-1.837 6.951-.983 5.836-3.672 9.378-10.23 9.247-3.344-.066-6.426 1.442-8.394 4.656 5.574-.853 11.214-1.115 15.608-5.378-5.312 8.46-13.247 15.28-14.493 26.1ZM221.009 98.878c5.312 3.148 11.673 4.263 17.05 9.115-2.951-7.41-8-11.148-11.738-17.574-6.624-8.919-17.182-11.28-24.33-20.002 4.329 0 7.87 1.378 11.411 2.23 6.951 1.902 14.296 2.099 20.395 6.427 19.345 12.656 24.723 39.346 48.199 46.363 9.968 3.541 19.083 8.46 27.15 16.526-10.362-40.134-46.889-43.413-74.628-65.381 2.23-.131 4.984.787 4.853-1.77-.328-1.05-1.508-.263-2.23-.591-4 .393-7.804-.46-11.607-1.508-.853-.263-2.361-1.77-3.082.524-.197.656-.918 0-.918-.196.131-2.361-1.837-1.837-2.951-2.099-6.886-1.574-13.706-3.607-20.788-4.853 7.213 1.115 28.788 3.476 51.412-8.787 17.706-9.64 27.15-23.346 31.084-29.97-10.82 1.247-20.394 4.854-31.018 6.23-19.936 1.903-23.87 26.429-42.757 30.035-8.394-.065-16.197 1.902-24.526 2.164 4.328-2.098 8.001-3.672 11.476-5.574 1.443-.787 4.132-.262 4.066-3.213 0-.066.59-.393.787-.328 4.197 1.508 6.886-1.77 9.706-3.541 9.902-6.295 16.46-15.28 19.804-26.69 2.951-9.837 7.017-19.28 14.296-26.887.328-.394.853-.721.59-1.508-2.164 0-3.934 1.114-5.574 2.295-5.115 3.541-10.558 6.426-16.198 9.05-11.279 5.246-19.214 14.164-25.64 24.526-2.558 8.46-5.968 16.788-9.247 25.05-4.394 11.542-19.149 5.181-27.936 10.1-1.115.655-1.902-.656-1.18-1.575.918-1.836 2.426-3.082 4.131-4.13 6.689-4.198 11.476-9.838 14.165-17.379 4.459-12.394-1.312-26.231 7.148-37.773-5.902 4.787-14.886 8.132-16.132 16.591-.263 2.689-3.214 4.394-2.623 7.41-4.788 1.837-4.788 6.886-6.821 10.493-3.016 5.377-2.754 11.148-.918 16.788 4.263 13.116-12.853 11.738-19.935 17.247-5.115 3.082-3.935 6.099 1.705 3.279 46.625-18.296 27.346-10.165 44.593 10.755 1.377 1.573 3.213 2.426 5.115 2.688 5.508.394 10.427 4 15.607 4.525-6.164-9.771-13.902-18.886-24.788-23.28-2.295-1.18-2.951-4.131-5.771-4.656 17.509-2.623 27.805-4.984 35.805 13.706 2.099 5.05 5.181 9.246 9.444 12.656 1.114.918 2.229 1.705 3.344 2.492ZM163.563 247.74c6.229 4.262 12.459 8.656 19.87 10.754 6.426 1.902 10.361 7.017 15.082 11.28 9.312 9.05 11.739 22.034 20.592 31.543 11.279 12 26.297 20.198 40.724 27.083-8.46-8.394-17.444-16.197-25.707-24.854-5.967-5.705-8.459-13.181-8.525-21.444-.066-7.803.066-15.673-1.443-23.345 2.361-1.049 10.755 13.771 10.952 16.525 2.623 9.116 11.804 15.411 10.82 25.707.394 9.509 16.132 29.969 25.379 33.182 7.017 2.558 14.033 5.246 21.116 7.542 6.23 1.967 12.919 1.246 19.214 3.344-2.492-3.607-4.394-7.935-8.853-9.246-8.197-2.427-14.952-7.148-21.247-12.657-5.837-5.771-13.575-9.64-15.936-18.165 4.329 2.426 8.132 4.525 13.05 4.591 1.968.065 3.738.721 4.788 2.098 2.229 2.885 5.443 3.869 8.525 5.049 5.18 2.033 8.328 5.771 10.427 10.755 2.557 5.706 7.082 10.099 10.82 15.018 4.197 6.164 24.133.065 30.953-.787 2.164-.459 4.393-.525 6.229 1.246 5.443 3.278-18.296 4.787-20.001 4.918-4.787 0-9.771-.459-13.837 2.689-12.131 8.787-24.919 18.427-28.329 33.838-1.312 4.656-1.902 9.181-.656 13.968.853 3.213-.787 6.361-1.967 9.181-1.64 3.934-1.836 8.066-2.689 12.132 0 1.705-2.558 10.951-3.738 6.229-.787-6.557-3.738-12.722-4-19.411-.197-4.262.787-8.328 3.016-11.935 4.132-7.476 8.919-14.82 12.919-22.165-37.248 32.395-18.362 31.74-36.33 60.725-1.115 1.902-3.016 3.082-4.787 4.131-4.722 2.951-7.804 7.345-11.542 11.214.328-3.869 2.099-8.394 1.968-12.787.196-4.066 3.016-7.345 4.393-11.083 2.23-6.099 7.017-10.034 11.608-14.099 3.869-3.41 6.82-7.345 8.984-12.001 2.623-6.23 8-9.902 11.214-15.739-3.607 4.132-9.968 2.886-12.788 7.476-2.689 5.443-7.869 7.869-12.657 10.689-4.721 3.804-7.148 5.771-13.377 4.919-5.378-.853-9.509 3.016-14.887 2.164 7.017-10.165 16.46-19.739 29.182-21.313 10.886-2.426 24.461-1.377 32.068-10.952 1.18-1.508 3.607-2.032 3.672-4.459 2.558.459 3.148-1.967 4.722-3.016 5.181-4.263 9.705-8.985 14.952-13.378-9.05.196-17.182 7.017-24.199 12.394-8.721 6.164-18.886 3.541-28.985 3.738 2.033-2.558 4.787-3.476 7.017-5.115 3.344-2.361 6.558-4.722 10.361-6.427 4.328-2.033 9.05-2.689 13.575-4.066 10.492-2.623 22.099.459 31.084-7.213-7.935-1.508-15.805-2.427-23.805-4.197-3.345-.787-6.886.59-10.23 1.574-23.805 9.115-38.166 7.017-62.168 1.377-4.131-.918-7.738-3.673-12.132-3.607-.983 0-.59-1.443.328-1.246 2.099.131 4-.721 6.033-.852 4.787-.394 9.05-2.624 13.575-3.804 10.886-3.41 22.427-.459 31.149 6.361.131 1.049.394 1.771.984.131 9.115 2.23 18.362 1.836 27.739-1.246-13.705-5.115-27.411-10.099-39.871-17.771-13.443-8.132-28.461-2.033-42.953-2.164-8.066.852-12.067 1.901-19.936-1.312-3.344-1.049-6.492-2.557-9.706-3.935-7.082-2.754-12-7.934-18.296-11.935 7.673-1.967 14.559.525 21.772-2.557 5.05-1.64 9.968-2.492 15.083.656 4 2.557 9.05 2.688 13.509 4.065 4.722.263 13.575 12.526 16.263 8.066.066-.131.525-.131.59 0 1.902 2.82 4.919 1.378 7.345 1.968.984.262 2.033.131 3.017.196.197-.721-.131-.918-.525-1.114-6.164-2.886-10.886-7.673-16.001-12.001-5.639-6.033-11.607-11.739-19.345-15.017-10.821-4.525-17.444-11.345-24.461-20.461-2.82-3.147-4.262-6.754-5.18-10.82-.525-4.066-4.591-7.017-5.574-10.82ZM148.743 147.668c2.951 2.558 4.918 6.23 8.918 8.525-5.049-.328-8.328-2.623-12.984-3.607-6.755-2.229-10.23-8.131-16.985-10.754.853 2.623 2.427 4.459 3.607 6.492 2.558 3.803 4.131 8.263 8 11.082 11.542 9.181 28.789 7.083 37.708 19.936 4.131 5.377 8.984 9.902 15.41 13.116-26.362 1.77-35.674-19.739-54.495-32.133.394 1.377 1.509 2.885-.065 3.278-.722 0-.459-.852-.787-1.246-.525-2.492-1.836-4.656-3.213-6.688-.328-.46-1.574-1.115-.263-1.968.328-.262-.197-.59-.328-.524-1.377.524-1.442-.722-1.836-1.378-2.361-3.869-4.918-7.607-7.082-11.672 2.098 4.131 7.869 16.788 4.918 32.92-2.295 12.656-8.722 21.116-11.935 24.788-1.377-6.82-1.18-13.312-2.426-20.067-2.82-12.46 11.213-19.739 9.639-31.871-1.705-5.049-2.098-10.23-3.606-15.279-.394 3.082-.656 5.574-1.115 8.066-.197 1.049.656 2.557-1.115 3.082-.066 0-.131.459 0 .525 1.771 2.229.328 4.525-.197 6.623-1.836 7.279-5.967 12.984-12.197 17.378-5.378 3.738-10.296 8.066-13.444 14.034-.13.262-.262.656-.787.656-.393-1.312-.13-2.624.263-3.804 1.115-3.803 1.77-7.673 2.23-11.607.918-7.87 4.721-14.493 9.771-20.46 4.59-3.214 8.984-6.952 13.312-10.624 6.099-4.984-.656-12.657.524-18.952.197-.787-.787-.984-1.18-.394-.918.919-1.377 2.099-1.639 3.345-1.181 4.918-3.673 8.919-7.673 12.066-6.623 5.181-16.132 4.46-21.444 11.87 1.705-4.525 1.967-10.624 6.82-13.116 1.574-.721 2.033-2.82 3.935-3.082.131-3.279 3.213-4.262 4.984-6.23 2.688-2.951 6.164-3.869 9.968-3.934 8.787 0 4.59-10.099 6.426-15.542.853-3.738 2.886-3.607 2.295.393-1.77 31.936-.655 18.624 15.411 24.92 1.246.524 2.099 1.442 2.689 2.557 1.311 3.279 4.525 5.509 5.836 8.525-7.148-1.77-14.23-4.656-19.083-10.361-1.18-1.18-3.082-.984-3.935-2.558 1.902 11.149 2.558 17.838 15.477 18.952 3.475.263 6.623 1.312 9.574 3.214a24.19 24.19 0 0 1 2.099 1.508Z"></path><path fill="#D3AA9D" d="M225.599 157.242c-.591-4.787-2.427-9.312-2.886-14.099-.524-5.771-4.525-9.181-7.476-13.443.132-.066.459-.197.722-.131 5.574.131 11.214.196 16.788.393 1.836.066 3.672.131 5.246-.721 3.607-1.902 7.345-3.41 11.148-4.853 2.164-.787 4.263-1.771 6.951-2.885-1.574-.394-2.557-.656-3.606-.853-6.886-1.508-13.706.197-20.461.984-3.738.393-7.344 2.426-11.017 3.803-2.426.918-5.049 1.377-7.213 2.886-.918.655-1.443.524-2.361.065-4.656-2.361-9.312-4.656-13.968-6.951-1.836-.918-3.935-1.377-5.968-2.885 5.05-1.181 9.771-2.033 13.968-4.329.591-.327 1.443-.262 2.164-.393 3.41-.59 6.952-.59 10.231-2.033 4.721-2.098 9.115-4.853 14.689-6.23-4.787-.983-9.05-.197-13.181-1.049-7.41-1.574-13.378 2.098-19.542 5.115-3.345 1.639-5.05 4.984-7.804 7.279-1.246 1.115-2.295 1.508-4.066.918-6.23-2.098-12.525-3.869-19.083-4.984-5.771-.983-11.411-2.623-17.313-3.41.787-.328 1.509-.59 2.296-.721 5.311-.984 10.623-1.377 16.001-1.64 2.754-.131 5.574 0 8.197-1.114 6.23-2.558 11.41-7.083 18.362-8.722-1.115-.918-1.968-1.05-2.82-1.18-6.951-1.312-13.968-.394-20.92.13-3.737.263-7.016 1.902-9.836 4.46-3.804 3.475-8.525 5.64-13.05 8.066-.394.197-.918.459-1.377.393-6.689-.59-13.378-1.311-20.002-1.967 1.968-.918 3.935-1.508 5.968-1.902 5.968-1.18 11.279-3.738 15.608-8.066 3.41-3.41 7.213-5.967 11.804-7.541 2.623-.918 5.18-2.164 7.869-2.886-2.426-.328-4.853-.459-7.214-.787-1.77-.262-3.41-.196-5.049.394-5.509 2.033-11.148 3.607-16.788 5.115-3.213.852-5.443 2.82-7.214 5.443-1.901 2.885-3.869 5.771-6.164 8.459-1.115 1.312-2.164 1.705-3.738 1.574-4.394-.328-8.787-.196-13.115.263-.918.065-2.099-.066-2.164 1.377-.066 1.311 1.114 1.442 1.901 1.902.656.393 1.246.065 1.902 0 4.066-.394 8.066-.722 12.132-1.181 1.967-.262 2.82.525 3.082 2.426.459 4.263 1.18 8.526 1.443 12.788.262 3.672 1.705 6.755 4 9.509 1.443 1.771 3.017 3.41 4.525 5.181 1.508 1.77 3.213 3.082 5.443 3.934 3.082 1.115 6.164 2.427 8.918 4.394 2.164 1.443 4.788 2.23 7.214 3.279.197-.197.393-.394.525-.59-11.083-12.854-20.854-26.691-30.625-40.659.787-.196 1.508-.721 2.098-.59 3.869 1.049 7.87.853 11.804 1.115 3.279.262 5.312 1.771 6.689 4.459 1.574 3.017 2.82 6.23 4.591 9.116 3.672 6.164 8.787 11.541 11.476 18.361.131.263.393.459.656.722 4.328 5.377 10.82 7.344 16.591 10.689-2.164-3.476-2.623-7.476-3.542-11.279-.524-2.165-1.573-3.87-3.147-5.378-2.951-2.82-5.771-5.705-7.935-9.181-2.558-4.066-5.771-7.41-9.902-9.968-3.279-2.032-5.968-4.983-9.509-6.885.984-.197 1.967-.066 2.885.065a200.1 200.1 0 0 1 31.674 6.689c7.148 2.164 7.083.656 7.083 9.64v.722c.524 5.115.328 10.558 4.262 14.623 1.312 1.378 2.361 2.951 3.017 4.656 1.967 5.312 6.492 7.673 10.886 10.165-3.869-12.853-6.361-26.166-16.067-36.789.918.262 1.312.328 1.705.459 5.837 2.033 11.017 5.508 16.723 7.804 3.737 1.508 4.328 4.197 4.328 7.541 0 1.312-.197 2.623-.263 3.869-.196 3.41.787 6.361 2.755 9.312 2.426 3.541 5.311 6.624 8 9.968.59-.656.131-1.443.066-2.23Z"></path><path fill="#D3AA9D" d="M281.012 183.801c-2.164-5.902-3.345-12.197-9.903-15.279-3.606-1.705-6.361-4.525-8.984-8.394 6.427 2.492 12.395 3.41 19.28 2.492-2.164-1.049-3.738-1.574-5.115-2.492-3.148-2.099-6.689-2.689-10.033-1.836-4.263 1.114-7.542.131-10.821-2.558-3.344-2.754-7.016-4.984-10.623-7.476 3.279.328 6.361 1.246 9.509 1.968 3.934.918 7.803 2.557 11.935 1.114 3.016-1.049 5.967-1.967 9.246-1.049-3.475-2.689-7.148-4.853-11.738-4.787-2.295.066-4.525-.197-6.82-.459-2.296-.262-4.525-.131-6.689.721-3.935 1.509-7.804 2.296-11.28-1.18-.852-.853-2.033-1.377-3.082-1.967-1.705-.853-1.246-1.574.066-2.296 9.771 1.246 18.821-2.754 28.329-3.672-2.688-1.18-5.115-3.017-8-2.951-3.541.066-6.951-.328-10.493-.328-1.705 0-3.41.131-4.787 1.377-2.82 1.312-4.393 3.935-6.754 5.706-1.312.983-1.115 1.377-.197 2.164-1.311 7.41-.197 14.427 3.41 20.984 1.377-7.016 1.18-13.836-2.426-20.197.328 0 .721-.066.918.131 3.148 2.098 6.361 4.197 9.443 6.426 1.049.722 1.574 2.033 1.574 3.41.065 1.443.197 2.951.131 4.394-.262 5.968 3.017 9.902 7.41 13.706-.262-3.148-.459-5.902-2.098-8.394-.656-.984-1.508-2.295-1.377-3.345.393-3.082-1.181-5.377-2.886-8 2.23 1.508 4.001 2.951 5.968 4.066 5.246 2.82 7.672 6.557 5.377 12.722-1.18 3.148-.787 6.558 1.64 9.443 1.049-5.509 2.623-10.951.065-16.526 6.165 7.87 9.968 17.575 19.805 22.362Z"></path><path fill="#6B7280" d="M274.454 190.031c.263.394.459.787.722 1.246-1.443.066-2.689.066-4.001.132 1.115.983 2.296 1.377 3.345 2.032 5.18 3.083 10.427 6.165 15.542 9.312 6.557 4.066 12.984 8.329 18.099 14.231 3.41 3.935 6.755 7.935 10.23 11.804 1.64 1.836 3.541 3.541 5.312 5.246-1.967.066-3.738.066-5.574.197-4.066.197-8.132.656-12.263.524-10.23-.262-20.264-1.967-30.231-4.393-1.64-.394-3.345-.59-4.984-.918 0 .131 0 .196-.066.328.656.459 1.246.918 1.967 1.377-.721.459-1.246.721-2.032 1.18 2.36.656 4.393 1.18 6.754 1.836-1.312.59-2.23.984-3.082 1.377 0 .197.065.328.065.525 2.165.525 4.263.984 6.427 1.508-.262.59-.459.984-.721 1.705 2.82.066 5.377.131 8.197.197-.59.59-1.049.984-1.443 1.443.066.131.066.262.131.393l10.034-1.18c.131.131.262.262.393.328l-1.574.983c.132.197.263.459.394.656 2.098-.393 4.197-.852 6.361-1.246.393-.065 1.049-.393 1.115-.328.787 1.574 1.836.394 2.623.197 1.574-.459 3.082-1.18 4.59-1.836l-.983 1.574c.131.131.262.328.393.459 1.246-.853 2.623-1.509 3.607-2.558 1.967-2.164 4.262-3.213 7.213-2.82 5.968.722 11.608 2.427 17.051 4.853 2.098.918 4.131 2.033 6.164 3.017-3.738 1.049-7.345 1.705-10.952 2.492-3.934.852-7.41-1.377-11.279-1.771.131.525.262.853.328 1.246-5.312-1.443-5.836-1.443-7.214-.721.656.393 1.312.787 2.033 1.311-3.213-.131-6.295-.262-9.377-.393 0 .131-.066.328-.066.459.59.393 1.181.787 1.967 1.246h-7.475c0 .131 0 .262-.066.393.984.328 1.902.656 3.344 1.115-3.606.131-6.754.262-9.836.394 0 .196 0 .327-.066.524.853.394 1.705.722 2.623 1.115-2.819.459-5.705-.197-8.656 1.377 1.115.328 1.771.525 2.754.787-2.754.787-5.574.066-8 1.902a18 18 0 0 1 1.18.787c-1.377.787-2.623 1.574-3.934 2.361.459.524.721.786.983 1.114-.918.394-1.77.722-2.623 1.115 6.033.328 11.87-.656 17.509-2.295 5.902-1.705 11.673-3.935 17.51-5.968 4.721-1.639 9.377-3.213 14.361-3.738-.852.328-1.639.591-2.492.853-3.738 1.115-7.541 1.967-11.148 3.344-11.214 4.132-22.428 8.46-34.625 8.985-.328 0-.59.131-.918.196v.394c1.574.393 3.148.787 5.049 1.18-.852.59-1.377.984-1.901 1.312.065.131.065.262.131.393 2.098.066 4.262.131 6.361.197.065.131.131.197.197.328l-1.181.787c.066.196.197.328.262.524 2.296 0 4.656-.065 7.214-.065-.59.656-1.049 1.049-1.508 1.508.065.131.131.328.196.459 2.624-.59 5.181-1.18 7.804-1.77-.131.393-.197.786-.459 1.77a498.06 498.06 0 0 1 8.394-3.672c.066.262.066.721.131 1.246 3.017-.722 4.853-2.886 6.886-5.115.131.983.197 1.705.328 2.623 2.754-1.64 4.131-4.132 5.574-6.624.131.853.197 1.771.328 2.755 3.016-1.902 2.82-5.443 4.525-8.066.262.655.459 1.114.655 1.574.132.065.328.065.46.131.393-1.05.786-2.033 1.311-3.082.656-1.378 1.049-3.083 3.017-3.476 3.41-.59 6.754-1.312 10.164-1.705 1.574-.131 3.345.131 4.722.852 9.181 4.722 18.23 9.64 27.346 14.493 6.82 3.607 13.378 7.673 20.985 9.509 1.508.393 3.147.459 4.721.459.459 0 .853-.656 1.312-.984-.459-.262-.853-.656-1.312-.721-1.115-.131-2.229-.066-3.344-.262-4.787-.853-9.116-2.886-13.378-5.116a16258.732 16258.732 0 0 1-34.756-18.296c-2.951-1.574-5.902-3.147-9.181-4.918.918-.459 1.442-.853 2.098-1.115 5.181-2.164 10.755-2.229 16.198-2.885.262-.066.721.131.852.393 1.181 1.836 3.083 2.427 4.919 2.361 4.131-.131 8.263-.459 12.394-1.049 2.164-.328 4-1.574 4.787-3.869 1.508-4.46-1.77-8.132-6.623-7.476-4.459.59-8.722 1.902-12.591 4.197-1.115.656-1.771 2.164-2.689 3.279-.328.393-.59.918-.983.983-2.099.263-4.197.328-5.771.459 2.82-3.672 5.836-7.475 8.656-11.345.852-1.114 1.377-2.098 3.017-1.377.59.263 1.639.066 2.164-.328 1.77-1.311 3.803-2.557 5.049-4.328 1.771-2.361 2.951-5.115 4.394-7.738 1.311-2.361 1.18-4.918.59-7.476-.59-2.361-4.918-4.525-6.886-3.148-1.836 1.181-3.672 2.755-4.656 4.657-1.836 3.475-3.279 7.213-4.525 10.951-.459 1.377-.262 3.213.263 4.656.393 1.115.328 1.836-.197 2.754-2.492 3.935-5.049 7.738-8.722 10.689-2.689 2.165-5.836 3.083-9.64 3.804 2.951-4.263 4.066-8.656 4.722-13.181.065-.394.721-.722 1.18-.984 1.246-.656 2.886-.983 3.804-2.033 3.672-4.066 6.164-8.787 7.607-14.099.459-1.705.459-3.541-1.115-4.525-1.771-1.18-3.869-1.836-6.033-.459-3.345 2.099-5.246 5.246-6.361 8.919-.722 2.361-1.574 4.721-2.033 7.148-.197 1.18-.131 3.016.59 3.606 1.508 1.246 1.18 2.492.918 3.935-.262 1.312-.524 2.689-.852 4-1.115 3.869-3.083 7.214-5.771 9.706-.984-.262-1.64-.328-2.23-.59-1.705-.656-3.738-.984-4.918-2.164-1.705-1.64-2.951-3.804-4.197-5.902-1.771-3.017-1.574-3.542 1.377-5.64.459-.328.852-.656 1.18-1.049.066-.066.066-.328.132-.525-.525-.197-.984-.328-1.771-.656 2.689-1.639 5.574-2.557 7.673-5.115-1.115 0-1.837-.065-2.886-.065 3.279-2.099 6.23-4.066 9.181-5.968-.131-.197-.197-.393-.328-.59-.59 0-1.18.065-1.771.065 2.558-2.426 5.443-4.393 7.476-7.672-.983.131-1.639.197-2.492.328 1.902-2.164 3.673-4.197 5.443-6.23l-.393-.394c-.853.197-1.64.328-3.082.656 2.229-2.164 4.197-3.803 4.852-6.754-.983.459-1.705.787-2.885 1.311 1.836-1.967 3.279-3.607 4.787-5.18l-.393-.394c-.59.131-1.181.262-2.033.459.656-1.115 1.115-2.098 1.639-3.016a1.445 1.445 0 0 1-.328-.263c-2.623 1.968-5.508 3.738-7.869 6.033-4.721 4.525-9.378 9.247-13.706 14.165-2.164 2.492-4.065 5.443-5.311 8.525-3.279 8.263-3.083 16.264 3.278 23.215.066.065.066.328.197 1.049-2.033-1.246-3.934-1.967-5.246-3.213-3.607-3.41-6.951-7.083-10.492-10.624-1.443-1.443-2.361-3.016-2.427-5.115 0-1.508-.131-3.082-.328-4.59-.065-.525-.59-1.05-.918-1.509l-.59.197c-.262-2.098-.525-4.197-.787-6.361h-.393c-.263.59-.591 1.246-.984 2.099-2.164-8.132-2.164-8.132-3.935-9.509-.065.721-.131 1.442-.197 2.426-.983-1.836-1.573-3.607-2.688-4.918-1.049-1.312-2.623-2.295-4-3.41-.197.197-.394.328-.656.524.328 1.115.656 2.164 1.18 3.738-3.082-2.623-5.705-5.115-9.64-6.295.59.984 1.05 1.574 1.443 2.23-2.623-1.509-5.181-2.951-8.656-3.476.852.918 1.442 1.508 2.229 2.361-6.295-2.623-6.951-2.689-8.984-1.509Z"></path><path fill="#6B7280" d="M346.72 184.261c.328-.853.459-1.312.722-2.033-3.345.655-5.115 3.41-7.87 4.656.525-.722 1.115-1.443 1.836-2.492-3.082.59-4.459 2.82-6.361 4.525-.131-.394-.262-.722-.524-1.443-1.705 1.967-3.279 3.738-4.853 5.574-1.508-.656-2.689.852-5.049 6.361-.328-.197-.656-.393-1.378-.852-.918 2.819-1.705 5.508-2.557 8.197-1.049-.656-1.377.393-1.377 1.377.065 2.033.328 4.131.524 6.164 0 .131-.065.328-.131.525-.459-.328-.852-.525-1.246-.787-.196.131-.328.197-.524.328.918 2.098 1.77 4.262 2.688 6.492-1.049.918.459 3.476 3.345 4.984 0-.197.065-.328.065-.525-.721-6.426.853-12.394 4.329-17.771 4.196-6.558 9.639-12.132 15.41-17.378 2.951-2.689 6.23-5.05 9.575-7.739-.853.263-1.443.394-2.099.591-.131-.394-.262-.787-.393-1.312-1.377.787-2.623 1.574-4.132 2.558ZM310.128 221.378c.066-.263.197-.46.263-.722-2.558-2.689-4.919-5.64-7.739-8-8.131-6.82-17.378-11.935-26.559-17.182-1.508-.852-3.147-1.442-4.721-2.164-.131.131-.197.328-.328.459.984 1.181 2.033 2.296 3.344 3.804a496.081 496.081 0 0 1-2.557-.459l-.197.393a418.194 418.194 0 0 0 6.558 4.853c-.131.131-.197.262-.328.459-.918-.131-1.836-.197-2.754-.328 2.229 3.213 5.246 5.115 8.918 6.755h-2.623c-.065.262-.131.524-.262.787 2.754 1.18 5.508 2.426 8.132 3.541-.984.524-1.05 1.18.327 1.77.591.263 1.181.591 1.837.722 1.573.328 3.147.524 4.852.721l-1.246 1.246c0 .197.066.394.066.59 2.82.263 5.64.59 8.919.918-.591.263-1.05.459-1.509.656l.394.787c2.426.197 4.787.262 7.213.394ZM314.129 233.706a1228.09 1228.09 0 0 1-4.853-4.459c.066.459.066.787.131.984-2.688-1.771-5.377-3.542-8.066-5.247-.131.197-.262.328-.393.525.524.852.983 1.771 1.508 2.623-2.951-1.967-5.705-4.263-9.706-4.525.656 1.115 1.181 1.902 1.837 3.017-3.148-1.443-5.837-3.017-9.378-2.82 1.049.984 1.836 1.639 2.885 2.623-3.213-.918-6.033-1.639-8.787-2.426l-.197.59c.787.524 1.64 1.115 2.623 1.77-2.623 0-4.918 0-7.213.066-.525 0-1.377.262-1.443.525-.131 1.311-1.049.787-1.705.852-.459.066-.918.066-1.311.066v.328c1.114.196 2.164.262 3.278.524 9.64 2.361 19.28 4.919 29.314 5.181 3.934 0 8-.197 11.476-.197Z"></path><path fill="#8559F9" d="M162.12 244.92a7.07 7.07 0 0 1-2.098 1.705c-8.919 5.181-17.772 10.427-26.822 15.411-1.508.852-3.279 1.115-4.787 1.967-.197.131-.524.262-.721-.066-.197-.393 0-.721.328-.983 1.639-1.377 3.213-2.886 5.115-3.935 6.689-3.738 13.378-7.41 20.067-11.148 2.164-1.246 4.524-2.033 6.82-2.951.721-.197 1.311-.459 2.098 0ZM143.955 280.397c-.263-.983.196-1.442.655-1.967 2.099-2.623 4.525-4.918 7.148-7.017 6.165-4.984 12.263-10.033 19.018-14.164.787-.459 1.77-1.378 2.426-.46.59.787-.656 1.312-1.246 1.771-7.017 5.64-13.968 11.345-21.05 16.854-2.295 1.705-4.722 3.082-6.951 4.983ZM158.973 295.021c4-8.918 10.427-16.132 16.001-23.87 1.114-1.508 2.295-3.017 3.41-4.525a9.025 9.025 0 0 1 1.114-1.115c.394-.328.919-.524 1.312-.131.459.394.066.787-.197 1.115a296.046 296.046 0 0 1-4.984 7.541c-3.475 5.116-7.082 10.165-10.951 15.018-1.574 2.229-4 3.672-5.705 5.967ZM169.726 303.612c1.181-3.213 2.558-6.164 4.46-8.787.327-.394.655-.787 1.18-.459.459.328.197.787 0 1.18-4 8.066-6.689 16.591-10.296 24.788-.328.722-.59 1.378-.918 2.033-.197.394-.393.853-.918.656-.525-.197-.393-.656-.262-1.115.656-1.967 1.246-4 1.967-5.967 1.377-4.263 3.017-8.394 4.787-12.329ZM130.38 244.199c1.311-1.181 2.885-2.099 4.459-2.82 6.296-2.82 12.788-4.984 19.28-7.083.721-.262 1.902-.852 2.295.197.263.656-1.049.853-1.639 1.115-5.902 2.492-11.804 5.049-17.772 7.41-1.77.722-3.607 1.049-5.443 1.509-.393.196-.852.196-1.18-.328ZM101.985 255.937c-.394-.394-.525-.853 0-1.246.655-.393 1.311-.787 1.967-1.115 5.705-2.295 11.411-4.59 17.181-6.82.918-.393 1.968-.525 2.951-.787.263-.065.722-.197.853.197.131.393-.262.59-.525.721-1.049.59-2.098 1.115-3.147 1.64-5.837 2.623-11.542 5.443-17.706 7.148-.525.131-.984.393-1.574.262ZM125.461 229.575c.197-.722.787-.918 1.311-1.05 6.558-2.36 13.51-3.344 20.33-4.524.655-.132 1.442-.197 1.639.59.197.787-.721.852-1.246.983-7.213 1.509-14.361 3.148-21.641 4.132-.065 0-.196-.066-.393-.131ZM142.905 313.055c1.181-1.508 2.427-3.279 3.738-4.918 2.099-2.623 4.263-5.312 6.427-7.87.393-.524.918-.918 1.377-1.377.262-.262.656-.524.984-.131.262.262 0 .59-.197.853-.918 1.311-1.836 2.688-2.754 4-2.689 3.607-4.919 7.476-7.935 10.82-.525.525-.853 1.64-1.836 1.049-.984-.59 0-1.442.196-2.426ZM138.446 283.545c.131.394-.066.656-.328.853-3.279 3.213-6.558 6.361-10.362 8.984-.459.262-.918.787-1.442.262-.525-.524.065-.984.459-1.377 3.016-3.148 6.558-5.705 10.033-8.328.394-.328.984-.656 1.64-.394ZM123.035 266.757c-2.033 1.902-4.328 3.148-6.623 4.46-1.508.852-3.082 1.77-4.656 2.557-.394.197-.853.394-1.115-.131-.262-.394-.065-.656.262-.984 3.345-2.688 7.017-4.721 11.017-6.23.328 0 .656-.065 1.115.328ZM180.219 276.332c.853-1.443 1.639-2.886 2.492-4.394.197-.328.262-.787.787-.459.459.262.328.656.197.984-1.312 3.213-2.623 6.426-3.935 9.574-.197.459-.59 1.115-1.18.787-.459-.197-.263-.853-.132-1.312.459-1.77.853-3.607 1.771-5.18ZM308.817 149.636c0 .393-.262.655-.524.852-6.82 5.902-13.444 12.066-20.788 17.444-.459.328-.984 1.049-1.509.393-.459-.59.263-1.049.656-1.442 6.689-5.968 13.575-11.739 20.723-17.182.262-.197.524-.459.918-.524.328 0 .524.131.524.459ZM293.8 122.749c-.263.524-.394 1.114-.656 1.573-4.066 6.23-7.804 12.657-12.46 18.428-.459.59-.918 1.705-1.705 1.18-.721-.459.131-1.377.459-1.967 3.607-6.099 7.804-11.739 11.87-17.575.459-.656 1.049-1.246 1.574-1.836.196-.197.459-.394.721-.197.066.066.131.262.197.394ZM311.178 164.587c-1.836 1.443-3.869 2.427-6.033 3.148-5.115 1.705-10.033 3.869-15.083 5.705l-.59.197c-.328.131-.787.328-.918-.066-.262-.524.262-.655.656-.786 3.475-1.509 7.017-3.017 10.427-4.591 3.606-1.771 7.672-2.426 11.541-3.607ZM270.651 135.012c-.262-.066-.393-.197-.328-.525.197-.525.328-1.049.525-1.574 1.967-4.721 3.935-9.443 6.689-13.771.328-.525.787-.984 1.18-1.508.131-.197.394-.328.656-.132.197.132.262.394.131.656-.196.525-.393 1.049-.656 1.508-2.426 4.788-4.918 9.509-7.344 14.296-.197.394-.328.919-.853 1.05ZM298.062 138.553c-.983 1.639-1.901 3.082-2.951 4.394-3.278 4.131-6.623 8.131-10.295 11.869-.066.066-.131.131-.131.197-.328.262-.656.787-1.05.393-.328-.327.066-.721.328-1.049 4.328-4.918 8.197-10.23 12.722-14.952.263-.327.525-.786 1.377-.852ZM302.26 110.945c-.066.065-.131.328-.263.524-1.705 2.492-3.475 4.919-5.246 7.345a.786.786 0 0 1-.328.328c-.196.197-.328.524-.655.328-.394-.197-.197-.59-.066-.853.525-.918.984-1.902 1.574-2.82 1.115-1.77 2.426-3.41 3.803-4.984.263-.262.525-.524.918-.393.197.066.263.197.263.525ZM285.209 107.141c-.393-.065-.524-.328-.393-.656.262-.524.459-1.049.787-1.573.721-1.378 1.508-2.689 2.229-4.001.197-.328.394-.656.853-.459.459.263.197.59.065.918-.918 1.705-1.901 3.41-2.819 5.05-.197.262-.394.524-.722.721ZM322.655 161.112c-1.574 1.639-3.607 2.164-5.706 2.36-.262 0-.524-.131-.59-.327-.065-.328.131-.525.459-.591 1.902-.59 3.804-1.311 5.837-1.442ZM317.933 141.438c.262.394.065.591-.066.722a22.027 22.027 0 0 1-4.262 3.934c-.263.197-.525.459-.787.131-.263-.327 0-.59.262-.786 1.443-1.443 3.148-2.689 4.853-4.001ZM282.914 111.6c-.459.853-.787 1.771-1.443 2.492-.131.132-.328.197-.525.066-.196-.131-.328-.262-.262-.459.328-.918.59-1.902 1.508-2.426.394-.263.656-.197.722.327ZM324.49 137.176c-1.246 1.246-2.623 2.229-4.262 2.885 1.246-1.246 2.623-2.229 4.262-2.885ZM299.702 136.061c.656-1.705 2.033-2.754 3.279-4-.918 1.442-1.705 2.951-3.279 4ZM329.147 159.079c-.722.787-1.705.918-2.623 1.18-.066 0-.263-.131-.394-.197-.131-.131.066-.327.197-.393.918-.328 1.771-.853 2.82-.59ZM305.801 129.11c0-.853.393-1.443 1.311-1.509-.393.525-.852 1.05-1.311 1.509ZM165.398 218.754c-2.427-2.164-4.787-4.656-7.148-6.754-2.164-1.902-4.066-2.23-6.886-2.033-.918.066-2.098-.197-2.754-.721-5.509-4.984-11.017-10.034-16.46-14.887-5.837-5.18-11.607-9.574-17.313-14.951-7.41-6.952-13.443-14.624-18.755-23.477-1.836-3.082-4.066-6.164-6.164-9.378-4.59-6.885-9.116-13.771-13.378-21.181-5.443-9.509-10.69-19.805-16.657-29.182-1.967-3.083-3.869-6.624-5.574-9.772-2.82-5.311-5.77-10.492-8.656-15.607-2.099-3.738-3.607-6.689-2.82-10.886.393-2.23 1.574-4.262 3.082-5.836 7.673-8.263 16.067-15.018 25.641-20.854 2.558-1.574 5.509-2.36 8.46-3.279 1.049-.328 2.623.131 3.344.852 9.378 8.329 18.231 17.575 27.215 26.035 5.508 5.18 10.23 9.902 16.132 14.493 4.394 3.41 7.607 6.23 13.115 8.59 9.312 4 15.411 2.82 26.625 3.804 7.082.59 5.771-.984 16.591 6.492 9.771 6.755 43.806 25.051 58.299 29.051 1.705.459 3.082.852 4.262 1.115-.59 2.754.591 3.803 3.017 4.787 1.705.656 3.279 1.18 4.984 1.836-2.427 1.902-3.607 2.623-6.689 1.312-6.689-2.755-14.034-5.05-20.854-7.214a37.188 37.188 0 0 1-7.345-3.213c-4.131-2.361-8.197-2.558-12.722-3.148-8.197-.984-15.214-3.607-22.689-6.754-2.033-.853-4.132-1.705-6.165-2.624-.131.263-.262.591-.393.853.656.393 1.246.918 1.901 1.246 8.394 3.935 16.461 7.082 25.707 8.328 5.771.787 10.492 1.836 16.132 4.001 7.476 2.885 16.067 5.115 23.477 8.459 3.541 1.574 6.558 3.607 10.033 5.181.525.262 1.181.787 1.312 1.18.787 2.951 2.492 3.213 5.115 3.541 3.344.459 6.492.459 9.837.656.131.197.262.394.327.59-1.77 1.115-3.344 2.558-5.246 3.41-3.344 1.509-6.558 2.558-10.23 1.771-3.672-.787-6.361-3.476-9.377-5.509-7.87-5.443-17.051-7.869-25.838-11.082-4.984-1.836-9.05-2.492-14.23-2.23-12.526.656-22.559-1.836-33.904-7.213-.262-.132-.853.065-1.115.262.787.525 1.377 1.18 2.295 1.639 10.427 5.05 19.87 7.017 31.478 6.427 4.524-.262 8.459-.197 12.787 1.639 8.001 3.345 17.05 4.722 24.526 9.312 7.214 4.394 9.116 12.788 14.362 19.018.328.393.459 1.246.459 1.771-.197 2.426.59 3.803 2.623 5.115 2.426 1.639 5.181 2.754 7.738 4.131v.787c-1.508.066-2.492.656-4.066.525-6.754-.722-8.59-1.837-15.345-5.902-3.803-2.296-14.23-6.493-17.181-11.345-3.673-6.034-6.361-8.591-12.198-12.001-3.738-2.164-6.754-2.164-11.476-1.508-15.148 2.229-22.624 2.754-36.264-5.05-2.689-1.508-3.673-2.033-6.099-3.41 0 .262-.197.394-.328.59.853.59 1.18.918 2.164 1.509 12.329 7.279 17.05 9.18 31.543 8.525 3.345-.131 6.492-1.181 9.574-.984 6.296.459 9.312-.59 14.624 4.459 9.771 9.312 9.771 16.329 1.115 27.936-5.574 7.542-15.411 15.542-20.395 23.936-.852 1.443-1.639 1.115-2.688 1.771-.525.328-1.377.131-1.705.459-2.427 2.557-3.279 5.246-4.263 8.459 2.295-2.688 3.148-5.967 6.164-8 .394.262.787.459 1.246.721-1.901 3.017-3.41 6.033-5.443 9.05-.131.197-1.442-.066-1.77-.459-3.017-3.541-5.181-6.951-5.181-11.804 0-2.492 0-3.803 1.64-6.23 2.36-3.607 9.64-7.541 11.869-10.82 4.525-6.689 6.033-10.099 2.82-17.837-.721-1.771 1.508-.984-4.394-2.82-13.968-4.459-42.822-10.952-56.921-12.263-10.034-.918-6.755 2.033-7.869 6.164-1.378 5.115 2.688 9.05 5.574 13.247 5.18 7.672 10.951 14.952 13.377 24.526 1.181 4.59 4.001 8.722 6.689 12.853 3.083 4.722 4.132 9.968 3.673 15.804Z"></path><path fill="#8559F9" d="M151.496 210.754c1.574.525 3.541.59 4.918 1.639 2.82 2.296 5.05 4.722 7.476 7.542.59.656.197 2.164.197 3.016-.787-.196-1.902-.196-2.492-.787-3.607-3.344-6.951-6.82-10.492-10.295.131-.394.262-.722.393-1.115ZM268.684 166.817c-4.263-2.164-8.984-2.82-11.411-7.345.197-.262.459-.525.656-.852 3.41 2.426 7.214 4.065 10.952 6.033.459.262.59 1.246.787 1.77a7.584 7.584 0 0 0-.984.394ZM254.06 135.274c5.246 1.049 10.754.984 16.066 1.377-4.197 1.443-12.853 2.623-16.066-1.377ZM246.714 121.044c2.361.655 4.591 1.311 6.952 2.164.524.196.852 1.049 1.18 1.574-.59.131-1.312.459-1.902.327-1.967-.393-3.672-.786-5.64-1.442-1.311-.394-1.573-1.443-.59-2.623Z"></path><path fill="#FA5A84" d="M102.575 122.093c2.623-1.181 3.934-3.017 3.672-5.771-.328-2.82-2.098-4.328-4.787-4.918 1.312-1.181 4.197-.984 6.033.393 2.164 1.64 2.951 4.787 1.771 7.214-1.246 2.426-4.001 3.803-6.689 3.082Z"></path><path fill="#FFB200" d="M94.313 130.29c2.95-1.639 5.967-.328 7.344 1.377 1.836 2.23 1.968 5.312.459 7.41-1.508 2.033-4.197 3.214-5.967 2.558 3.606-2.099 4.787-3.804 4.131-6.82-.656-2.951-2.689-4.394-5.968-4.525Z"></path><path fill="#DE8469" d="M142.512 104.059c-.197-3.148-1.64-5.05-4.853-5.508 1.443-.197 2.689-.722 3.607-1.837.918-1.114 1.115-2.426 1.18-3.869.328 2.755 1.246 5.05 4.525 5.706-3.148.59-4.131 2.754-4.459 5.508Z"></path><path fill="#DB8870" d="M95.492 122.486c-.393-.721-.721-1.377-1.705-1.639.918-.394 1.574-.787 1.574-1.967.525.918.852 1.705 1.902 1.901-.46.263-.853.394-1.115.656-.328.262-.328.656-.656 1.049Z"></path><path fill="#FFB200" d="M78.18 109.436c4-.721 6.426-2.426 6.885-6.361.787 3.345 2.427 5.771 6.1 6.296-3.608.787-5.51 2.951-5.969 6.623-.655-3.803-2.688-6.033-7.016-6.558Z"></path><path fill="#DC8671" d="M113.067 106.354c2.033-1.18 2.427-1.639 3.542-3.869.59 1.705 1.311 3.148 3.344 3.607-.787.59-1.443 1.049-2.033 1.508-.656.459-.852 1.181-1.311 2.295-.919-1.705-1.509-3.41-3.542-3.541Z"></path><path fill="#146463" d="M89.526 94.353c-.328-.59-.59-1.114-1.312-1.377-4.197-1.377-8-3.41-11.541-6.098-.197-.197-.525-.197-.853-.263-.459.197-.656.853-1.246.59-.852-2.557-2.82-4.328-4.46-6.36-1.573-1.968-2.753-4.197-4.196-6.23-.328-.263-.46-.656-.722-.918.328-2.23-.983-4-1.704-5.902-1.312-3.476-2.624-7.017-4.394-10.296-.656-1.18-1.18-2.492-2.558-3.214-.918-.59-.656-1.18-.065-1.836 1.18.787 2.033-.262 3.082-.459.262.328.262.722.262 1.115.066.918.918.853 1.508 1.115C65 55.99 69 56.712 73.066 57.105c.262.132.393.328.459.59-.59.984-1.574.722-2.492.722-4.328-.131-8.263-1.574-12.132-3.476 1.18 1.837 1.967 3.935 3.541 5.509.263.459.656.918.328 1.508-.328.066-.59.066-.656-.262 1.312 2.164 1.968 4.656 2.951 7.017 1.115 2.754 2.492 5.311 4.066 7.869.59.984 1.312 1.574 2.427 1.77.459.328.786.787.852 1.378-.393.655-.066 1.114.394 1.574 2.688 2.95 5.64 5.574 9.18 7.541.722.394 1.378.328 2.099.394.393.196.262.852.852.918 2.361 1.639 5.115 2.098 7.739 2.885 1.114.328 2.295.328 3.41.656.983 1.64-.787 1.377-1.377 1.967-.919-.393-1.837-.984-2.951-.984 1.18 1.05 2.491 1.902 3.737 2.951.263.263.525.525.525.918-.066.132-.131.197-.262.328-2.623-.72-4.328-2.754-6.23-4.525Z"></path><path fill="#FFB200" d="M86.115 56.974c-.393 1.574-1.901.59-2.82 1.18.59.787 2.296 1.378 1.378 2.492-.787.919-1.771-.459-2.624-.918-.13-.065-.327-.196-.655-.393.262.918.787 1.64.721 2.492 0 .59 0 1.312-.787 1.443-.721.13-.918-.46-1.115-.984-.262-.656-.459-1.377-.787-2.295-.524 1.049-.59 2.164-1.377 2.82-.393.328-.787.655-1.311.328-.46-.263-.46-.722-.328-1.18.328-.919.656-1.772 1.115-3.214-1.05.787-1.64 1.377-2.492 1.574-.656.196-1.443.328-1.77-.394-.394-.721.393-1.05.852-1.442.196-.197.459-.328.918-.656-.722-.066-1.18-.131-1.64-.197-.197-.131-.393-.262-.59-.46-1.05-2.36 1.115-1.245 1.902-1.77-.263-.852-1.902-1.705-.918-2.492 1.18-.918 2.033.787 3.279 1.246-.263-1.311-1.377-2.688-.132-4 1.968.525 1.509 2.426 2.296 3.87.393-1.116.262-2.296 1.049-3.148.393-.394.787-.853 1.443-.525.524.262.459.852.328 1.311-.328.919-.656 1.771-1.18 3.017 1.048-.59 1.704-1.377 2.688-1.574.59-.131 1.311-.393 1.64.262.393.722-.329 1.05-.788 1.443-.262.197-.721.262-.787.787.853.393 1.902.46 2.492 1.377Z"></path><path fill="#2A1F3F" d="M56.475 54.351c.196-2.033-.984-2.492-2.623-3.344 4.131 5.705-4.132 17.312 6.36 23.149-3.213-6.23-1.114-13.444-3.737-19.805ZM75.885 86.615c-3.869 2.033 6.886 14.296 10.1 14.821-1.312-6.23-6.624-9.902-10.1-14.82ZM65.786 74.221c-.196-.197-.196-.59-.656-.459-2.426 6.624 2.427 12.394 6.23 17.313.328-6.23-4.328-11.017-5.574-16.854ZM95.82 98.813c-2.163-1.377-3.868-3.41-6.295-4.46.787 4.526 5.115 7.673 8.919 9.313-.394-1.902-1.443-3.41-2.623-4.853ZM63.492 53.761c4.525.262 8.525-1.115 11.935-4.131-3.148-.066-24.526 1.77-11.935 4.131ZM71.032 71.795c1.574.983 3.214 1.77 5.116 1.836-4.59-4.59-6.755-11.738-13.903-12.919 1.64 4.525 4.722 8.394 8.788 11.083ZM87.427 80.976c-5.443-1.05-10.493-5.902-16.067-2.492 4.263 5.246 14.23 4.787 16.067 2.492ZM84.74 90.288c4.393.262 8.918.852 12.721-2.099-3.672-1.377-12.656-1.77-12.722 2.099Z"></path><path fill="#EEEFF2" d="M86.377 67.991c-.525 1.377-.066 2.361 1.049 3.607-1.443-.852-2.558-1.05-3.738-.131.59-1.377.066-2.426-1.115-3.541 1.509.59 2.623 1.115 3.804.065Z"></path><path fill="#E2AEB5" d="M78.246 55.794c.59-.328 1.115-.394 1.574 0 .46.328.46.852.066 1.311-.525.46-1.05.263-1.443-.13-.393-.394-.393-.788-.197-1.181Z"></path><path fill="#FFB200" d="M107.362 94.55c-.393 1.574-1.901.59-2.819 1.18.59.788 2.295 1.378 1.377 2.493-.787.918-1.771-.46-2.623-.918-.132-.066-.328-.197-.656-.394.262.918.787 1.64.721 2.492 0 .59 0 1.312-.787 1.443-.721.131-.918-.459-1.115-.984-.262-.656-.459-1.377-.787-2.295-.524 1.05-.59 2.164-1.377 2.82-.393.328-.787.655-1.311.328-.46-.263-.46-.722-.328-1.18.328-.919.656-1.771 1.115-3.214-1.05.787-1.64 1.377-2.492 1.574-.656.197-1.443.328-1.77-.394-.394-.721.393-1.049.852-1.442.196-.197.459-.328.918-.656-.722-.066-1.18-.131-1.64-.197a3.607 3.607 0 0 1-.59-.459c-1.05-2.36 1.115-1.246 1.902-1.77-.262-.853-1.902-1.706-.918-2.493 1.18-.918 2.033.787 3.279 1.246-.263-1.311-1.377-2.688-.132-4 1.968.525 1.509 2.427 2.296 3.87.393-1.116.262-2.296 1.049-3.148.393-.394.787-.853 1.443-.525.524.262.459.852.328 1.311-.328.919-.656 1.771-1.181 3.017 1.049-.59 1.705-1.377 2.689-1.574.59-.131 1.311-.393 1.639.263.394.72-.328 1.049-.787 1.442-.262.197-.721.263-.787.787.853.46 1.902.46 2.492 1.377Z"></path><path fill="#E2AEB5" d="M99.493 93.435c.591-.328 1.115-.393 1.574 0 .459.328.459.853.066 1.312-.525.459-1.049.262-1.443-.131-.393-.394-.393-.787-.197-1.18Z"></path><path fill="#EEEFF2" d="M118.576 136.258c0-1.05 0-2.099-1.05-2.558-.655-.328-1.246.394-1.508 1.18-.262.787-.328 2.296.197 3.148.459.853 1.18.853 1.77.263.263-.263.46-.394.591-.066.065-.197.196-.394.328-.525-.328-.524-.328-.918-.328-1.442ZM123.101 129.306c1.115.066 2.033-.655 2.557-1.705.525-1.114.132-2.164-1.049-2.688-1.18-.525-2.557-.853-3.607.262-1.049 1.115-.196 2.951.525 4.131-.066.263-.197.525-.262.787h.393c.262-.59.59-.852 1.443-.787ZM119.363 126.618c.852-.984.328-2.755-.394-3.41-1.049-.984-2.098-1.312-2.688-.197-.591 1.049-.328 2.098.065 3.148.328.983 1.049 1.246 2.033 1.246.131 0 .262-.066.393-.066.066.131.066.262.132.393l.328-.327c-.132-.263-.132-.525.131-.787ZM118.249 131.143c-.197-.263-.328-.787-.328-.984-.066-1.18-.328-2.361-1.312-2.951-.984-.59-1.574.262-1.836 1.18-.262.984.131 2.492.656 3.214.787 1.114 1.311.983 2.033.131.131-.131.196-.263.262-.394.131.131.262.328.393.459.066-.131.197-.328.263-.459-.066-.065-.131-.131-.131-.196ZM127.036 141.766c-.263.066-.46 0-.722.066-.59.131-.983.459-1.311 1.115-.459 1.049-.459 2.36.393 3.082.787.721 1.508.393 2.099-.459.59-.853.852-2.296.262-3.279-.131-.197-.262-.394-.262-.59v-.591h-.394c0 .197-.065.459-.065.656ZM131.299 140.52c-.131 0-.262 0-.394.066-.918.262-1.508.983-1.639 1.902-.066.918.393 1.311 1.246 1.442.787.066 1.443-.459 1.771-1.115.327-.655.196-1.246-.263-1.836-.131-.196-.262-.59-.197-.852v-.394c-.131.066-.262.197-.393.263-.066.196-.066.328-.131.524ZM135.168 138.225c-.132.065-.263.197-.394.262-.59.722-.983 1.509-.524 2.427.327.655 1.18.918 1.901.787.722-.066 1.181-.46 1.443-1.181.459-1.311-.328-2.164-1.639-2.492-.197-.065-.459-.131-.591-.328-.196-.196-.393-.393-.59-.524a1.404 1.404 0 0 0-.524.328c.327.262.59.459.918.721Z"></path><path fill="#2A1F3F" d="M129.068 131.798a94.606 94.606 0 0 0-2.36 2.492c-2.886 3.148-5.05 6.886-6.886 10.821-.066.131-.262.459-.328.655.197-1.049.394-2.426.656-3.475.525-2.361 1.18-4.394 2.23-6.492.065-.131.131-.197.196-.263-.131-.065-.196-.131-.328-.196-.59 1.18-1.049 2.426-1.639 3.606.066-1.639.066-3.278-.066-4.918 0-.328 0-.59.132-.918.262-.853.524-1.508.786-2.426.066-.263.132-.459.263-.656h-.394c-.328.918-.59 1.836-.852 2.82-.197-1.64-.59-3.279-1.049-4.788-.066-.196-.132-.393-.132-.59l-.328.328a38.985 38.985 0 0 1 1.181 5.64 24.899 24.899 0 0 1-1.64-2.033c-.065.131-.131.328-.262.459 2.033 2.361 2.295 4.787 1.771 8-.328-.59-.59-1.377-.984-1.901-.066-.066-.066-.131-.131-.197a1.434 1.434 0 0 0-.328.525c0 .065.066.065.066.131.983 2.164 1.377 3.344.787 5.967-.328 1.443-.525 2.951-1.05 4.984-1.311 4.853-2.098 10.624-2.361 15.936 0 .328-.065 1.114-.065 1.442-.853-2.426-1.246-5.18-1.246-7.672 0-1.705.197-3.607.262-5.05.263-3.344.263-6.098-.59-9.115-.393-1.312-.328-1.902 0-3.017.131-.459.328-.918.394-1.246.459-1.705.327-3.672-.984-4.787-.722-.656-.59-.59-.459-1.442.065-.394.131-.656-.328-.919-.525 2.23-.984 2.558-1.443 5.181-.721 4.066-.459 7.082.263 12.394.524 3.673 1.967 12.526 3.803 16.657.262.59.197.459.197.787-.131 1.115-.459 2.164-.525 3.279 0 .197.066.459.197.524.065 0 .328-.524.393-.655.066-.131 0-.263.066-.394.131-.852.197-1.574.393-2.426.066-.262.197-.59.328-.918.918-2.361 2.295-5.312 3.804-7.148 1.508-1.836 2.951-3.41 4.328-4.919 1.639-1.836 3.213-2.951 4.918-4.459.918-.852 1.574-1.508 2.427-2.361-.459-.328-.853-.393-1.443-.196-.525.196-.787.59-1.312.787-1.246.393-1.114.852-2.557-.328-1.443-1.246-3.541-1.377-4.263 1.442-.196.853-.524 2.164-.656 3.214-.131 1.049-.459 1.967-1.114 2.82-.197.262-.328.459-.591.786-1.573 1.706-2.098 3.87-2.36 6.23-.131 1.181-.656 2.427-1.312 3.542 0-.197 0-.459.066-.656.328-6.886 1.377-14.69 3.738-20.854 1.311-3.541 2.426-4.787 4.918-6.82.787-.656 1.246-.328 1.705.328.328.459.393 1.18.328 1.836h.393c-.065-1.115-.328-2.098-1.246-2.885 1.246-.853 2.623-1.246 3.935-.656 1.115.524 1.246 1.377 1.18 2.426a1.35 1.35 0 0 0 .394-.262c0-1.049-.394-1.902-1.312-2.492-.196-.131-.459-.197-.721-.328 1.705-.262 3.148-.131 4.459.721.197-.131.328-.196.525-.327-.853-.656-1.705-1.05-2.886-1.181-2.36-.328-4.59.525-6.557 1.902-.525.328-1.05.787-1.509 1.115.656-1.246 1.64-2.558 2.558-3.541.918-.984 1.639-1.706 2.754-2.361a3.442 3.442 0 0 1 1.049-.394c-.262-.524-.459-1.049-.721-1.574-.197.066-.328.263-.525.459Z"></path><path fill="#FA5A84" d="M140.675 133.962c-1.639-.59-2.492-1.705-2.295-3.475.066-.918 0-1.64-.393-2.427-.197-.459-.459-.721-.59-1.18-.394-1.049-.263-1.836.131-2.885.393-1.115.459-2.23.065-3.41-.196-.525-.262-1.181-.328-1.705-1.114.655-1.639 1.311-2.688 2.229-1.05.918-1.771 1.836-2.82 3.148-.984 1.311-1.377 3.41-1.574 5.181-.066.59-.197 1.311-.59 1.901.197.591.459 1.115.721 1.574.787-.197 1.574-.065 2.295.459 1.05.722 1.771 1.509 2.755 2.23 1.901 1.311 3.541 1.77 5.902 1.246.459-.131.983-.066 1.508-.066s1.18.066 1.705.066c-1.18-1.443-2.164-2.361-3.804-2.886Z"></path><path fill="#EEEFF2" d="M126.248 131.864c-.197-1.049-.984-1.771-2.099-1.443-1.901.459-2.164 2.361-1.901 4.132.065.196.065.459 0 .655 0 .066 0 .066-.066.132.131.065.262.131.328.196.131-.131.262-.196.656-.196.459-.066 1.049 0 1.639-.263.984-.59 1.64-2.164 1.443-3.213Z"></path><path fill="#C22BAC" d="M137.594 119.076c0 .459.065.853.196 1.246.46 1.246.46 2.361.066 3.607-.066.262-.197.524-.197.852-.065.722-.065 1.378.197 2.099.262-.394.459-.656.262-1.181 0-.065 0-.393.132-.393.196 0 .524-.131.721.066.197.262.065.459-.197.721a2.663 2.663 0 0 0-.656 1.115c-.065.131.263.459.394.59a21.29 21.29 0 0 1 1.246-1.18c.262-.263.393-.394.328-.787 0-.132.262-.394.393-.459.197 0 .394.131.459.327.066.132-.131.525-.197.525-.655.262-.983.656-1.442 1.115-.263.262-.394.656-.656.918.197 0 .525 0 .656-.066.721-.393 1.377-.721 2.033-1.18.131-.066.131-.328.262-.459s.525-.393.721-.393c.197 0 .328.327.328.524 0 .262-.328.525-.656.394-.131-.066-.262-.132-.327-.066-.919.459-1.705.984-2.624 1.443.066.065.197.262.328.262.591-.131.984-.066 1.443-.525.131-.131.59-.131.721-.065.132.065.197.328.066.524-.131.197-.328.328-.656.197-.524-.262-1.18.066-1.705.197 0 .262 0 .525-.065.787a39.015 39.015 0 0 1 2.885-.328c.197 0 .459.066.59.262.131.131 0 .459-.131.525-.131.065-.459.065-.656 0-.196-.066-.262-.328-.459-.328-.721 0-1.377.066-2.033.066-.065 0-.196.131-.262.196-.066.066 0 .197.066.263.393.131 1.049.196 1.377.262.328.066.59.131.656.262.131.197-.066.525-.263.59-.197.066-.459 0-.721-.131-.262-.131-.721-.524-.984-.721-.065-.066-.197.131-.197.197.132 1.246.787 1.967 1.902 2.492.656.328 1.443.459 2.099.918.655.459 1.18 1.115 1.77 1.639.394.328.722.787 1.377.394 1.443-.853 1.771-2.492.919-3.935-.394-.59-.853-1.115-1.115-1.771-.197-.393-.197-.852-.197-1.311 0-.459.197-1.049.262-1.574.131-1.574-.196-2.82-1.508-3.804-.393-.327-.787-.459-1.246-.655-1.18-.591-1.902-1.443-2.295-2.689-.394-1.246-1.181-1.902-2.427-2.295-.721-.131-.983.262-.983.721Z"></path><path fill="#2A1F3F" d="M130.906 153.701c.065-.787.196-1.377.59-1.902.393-.59.656-.852.918-1.442.131-.263 0-.656 0-.984-1.705 1.312-2.82 2.295-4.591 3.804-1.77 1.442-3.41 3.213-5.115 5.246-1.049 1.246-2.688 3.148-3.672 4.787-.393.59-.852 1.508-1.246 2.164.394.525.525 1.443.984 1.902.721.656 1.377.524 2.361-.066 1.245-.787 2.164-2.688 2.36-4.197.197-1.508.263-2.361 1.64-2.82 3.41-1.311 5.508-2.688 5.771-6.492ZM111.56 136.979c.524-1.836.655-2.033 1.18-3.607-.59.197-.853.262-1.18.853-.591.918-1.378 1.705-2.361 2.164-.263.131-.59.328-.787.459-.787.59-1.443 1.18-1.508 2.098-.066.59.196.984.393 1.508.197.525.197.853-.262 1.443-.197.262-.328.131-.656.59-1.443 2.427-.918 4.46.459 7.607.852 1.902 3.082 5.837 4.131 8.46.591 1.443 1.574 4.459 2.951 5.377-.59-2.164-1.836-8-2.098-9.64-.984-6.426-1.771-11.672-.262-17.312Z"></path><path fill="#518A2F" d="M90.902 75.14a57.692 57.692 0 0 0 2.36-6.69c.066-.197 0-.59.329-.459.524.197 1.049.394 1.377.787.197.197-.263.59-.46.918-1.376 2.033-2.163 4.197-2.032 6.69 0 .327 0 .655.262.983a43.073 43.073 0 0 0 3.017-7.214c.197-.656.328-.787.983-.393.525.328.59.59.197 1.049a2.75 2.75 0 0 0-.59.918c-1.246 2.164-1.902 4.46-1.443 7.017.263-.066.263-.262.328-.394a53.534 53.534 0 0 0 2.886-6.95c.065-.198 0-.591.262-.525.393.13.787.327 1.05.655.327.263-.066.59-.263.787a12.167 12.167 0 0 0-1.902 3.935c-.328 1.311-.328 2.557-.197 3.935.394-.197.46-.525.59-.722 1.05-2.033 1.837-4.197 2.624-6.295.065-.263.065-.722.459-.722.328.066.655.328.918.59.196.263-.131.525-.263.722a12.178 12.178 0 0 0-1.901 3.935c-.328 1.311-.46 2.623-.066 4.131 1.443-2.623 2.426-5.246 3.279-7.935 1.18.46 1.18.59.525 1.574-.525.787-.984 1.574-1.312 2.426-.656 1.64-.918 3.41-.525 5.378.263-.46.394-.722.525-.984a45.535 45.535 0 0 0 2.623-6.427c.066-.196.066-.655.328-.59.328.066.59.328.787.59.197.197-.066.394-.197.59-.59.722-1.049 1.575-1.377 2.427-.787 1.77-1.18 3.672-.721 5.705.131-.196.197-.262.262-.328 1.18-2.23 2.099-4.525 2.886-6.95.131-.46.262-.788.721-.263.131.131.262.262.393.328.525.262.525.524.197.983-.525.656-.918 1.377-1.311 2.164-.919 1.837-1.312 3.804-.853 6.165a47.233 47.233 0 0 0 3.344-8.132c1.246.853 1.246.853.525 2.033-.197.328-.393.656-.59 1.05-.918 1.77-1.574 3.606-1.312 5.639-.065.262-.131.525.263.787 1.377-2.492 2.295-5.115 3.213-7.804.197.197.328.328.459.394.59.393.721.787.197 1.442-.394.46-.722 1.05-.984 1.574-.984 1.968-1.574 4-1.115 6.492 1.509-2.688 2.427-5.377 3.41-8.066.131.132.263.197.328.263.656.459.853.918.262 1.705-.983 1.18-1.573 2.623-1.901 4.066-.263 1.18-.394 2.426-.066 3.869 1.508-2.623 2.427-5.312 3.345-8l.655.655c.525.393.591.721.132 1.311a10.738 10.738 0 0 0-1.574 2.82c-.656 1.64-.984 3.345-.525 5.115 1.443-2.36 2.361-4.984 3.279-7.607.393.066.459.394.656.59.524.394.59.788.196 1.378a11.83 11.83 0 0 0-1.77 4.066c-.262 1.311-.394 2.623.065 4.197 1.312-2.69 2.099-5.312 2.886-8.001.524.328.721.853 1.115 1.18.524.525.328.787-.066 1.246-1.311 1.574-2.23 3.41-2.557 5.443-.132.787-.263 1.64.065 2.623 1.508-2.492 2.623-5.05 3.738-7.672.197.262.328.459.525.59.524.525.655 1.05.131 1.77-.394.525-.656 1.247-.918 1.902-.853 2.033-1.115 4.132-.459 6.558 1.246-2.688 1.901-5.312 2.623-8 .984 1.18.984 1.18.459 2.426-.787 1.77-1.246 3.607-1.049 5.574.065.918.131 1.836.721 2.689.853-2.623 1.246-5.18 1.639-7.935 2.033 3.607 2.492 7.607 4.591 11.017.197-.328.197-.59.197-.918.131-2.623-.853-4.918-2.296-7.017-.655-.918-1.442-1.77-1.77-3.016 1.18.655 2.295 1.311 3.41 1.901 1.115.59 2.229 1.181 3.475 1.574-.065-.393-.262-.59-.393-.852-1.639-2.296-3.935-3.41-6.623-4.132-1.05-.262-1.509-.656-1.771-1.836 2.492.852 4.984 1.77 7.738 2.23-.197-.46-.459-.656-.656-.853-2.098-1.836-4.59-2.689-7.279-2.689-1.049 0-1.246-.655-1.705-1.377 2.82.328 5.509.722 8.394.525-1.902-1.574-4.721-2.36-7.607-1.836-1.311.197-2.229 0-2.82-1.18v-.197c2.82.13 5.64.328 8.46-.066-.131-.328-.328-.393-.525-.459-2.426-1.246-5.049-1.312-7.672-.721-1.443.328-1.377.328-2.23-.918 2.82-.197 5.574-.394 8.328-1.18-.524-.263-1.114-.525-1.639-.657-2.361-.59-4.722-.196-6.951.656-.263.066-.525.328-.787.066-.394-.394-.853-.722-1.181-1.312 2.82-.197 5.575-.393 8.263-1.115-.131-.13-.131-.262-.197-.262-.196-.066-.393-.197-.655-.262-2.558-.853-5.05-.59-7.411.328-.918.393-1.508.196-2.033-.656 2.82-.525 5.575-1.05 8.198-2.164-2.951-.984-5.706-.46-8.329.918-1.114.525-1.049.525-1.77-.525 1.311-.393 2.623-.721 3.934-1.18 1.312-.46 2.624-.787 3.869-1.508-.131-.197-.327-.197-.459-.197-.393-.066-.721-.131-1.114-.131-2.492-.131-4.788.656-6.886 1.901-.262.132-.459.394-.721.132-.328-.328-.656-.59-1.05-.918 2.755-.722 5.443-1.443 8.132-2.69-.59-.327-1.049-.327-1.508-.393-2.558-.196-4.853.525-6.952 1.902-.262.131-.524.525-.918.197-.328-.262-.655-.59-1.049-.918 2.689-1.05 5.246-2.033 7.738-3.607-.459-.197-.721-.197-.983-.066-.328-.196-.722-.13-1.05-.065-2.295.197-4.262 1.18-6.098 2.492-.787.59-.787.59-1.443-.262 2.557-1.246 5.049-2.492 7.41-4.263-.393-.197-.656-.131-.983-.066h-.197c-.328-.13-.656 0-.984.066-2.164.459-4 1.508-5.574 2.95-.59.591-1.049.591-1.574-.065 2.427-1.442 4.919-2.95 7.214-4.918-.853-.066-1.509.066-2.164.262-2.164.59-4.001 1.837-5.443 3.476-.459.525-.853.59-1.312.066-.131-.197-.459-.197-.524-.525 2.492-1.508 4.721-3.213 6.951-5.18-.459-.132-.787-.132-1.049.065-.263-.066-.525 0-.722.065-2.229.656-4 1.902-5.443 3.673-.721.918-.918.918-1.705.262-.262-.197-.262-.262 0-.459 1.115-.853 2.23-1.705 3.279-2.623 1.049-.853 1.967-1.836 2.951-2.82-.393-.197-.59-.066-.852.066-.459-.066-.853.13-1.181.328-1.967.787-3.475 2.098-4.787 3.803-.721.984-.787.918-1.77.262-.066 0-.066-.065-.132-.196 2.361-1.705 4.591-3.542 6.624-5.771-.394-.066-.656-.066-.918.131-.197-.066-.394 0-.591.066-2.295.72-4 2.23-5.443 4.065-.786 1.05-.786 1.05-1.901.328-.394-.262-.394-.328-.066-.656 1.115-.852 2.164-1.705 3.213-2.557 1.05-.853 1.968-1.77 3.017-2.886-.59.066-.984.066-1.312.328-.655.066-1.246.328-1.77.656a11.69 11.69 0 0 0-4.066 3.738c-.328.525-.656.656-1.246.262-.394-.262-.918-.459-1.377-.655-.197-.066-.46-.394-.656 0-.131.262.197.328.394.459.327.196.72.328 1.049.524.983.46.983.46.393 1.377-.983 1.574-1.574 3.214-1.705 5.05-.065.852 0 1.705.197 2.558.328-.197.328-.46.459-.722Zm19.345 5.18c0-.066.066-.131.066-.197 0 .066 0 .131-.066.197Zm-3.344-4.984c-.131.131-.262.197-.459.262.197-.131.328-.197.459-.262Zm-1.967-1.508c.065 0 .065 0 0 0 .065.065.131 0 0 0Zm-6.23-11.411a.79.79 0 0 0 .328-.328c-.066.197-.328.328-.46.394a53.688 53.688 0 0 0-3.081 2.295c1.049-.787 2.098-1.574 3.213-2.361Z"></path><path fill="#DE8469" d="M81.525 46.94c-.197-3.147-1.64-5.049-4.853-5.508 1.443-.197 2.689-.721 3.607-1.836.918-1.115 1.115-2.426 1.18-3.87.328 2.755 1.246 5.05 4.525 5.706-3.148.59-4.131 2.755-4.46 5.509Z"></path><path fill="#EEEFF2" d="M136.676 109.961c.852.59 1.639 1.049 2.557 1.705a49.442 49.442 0 0 1-3.213-.262c-.131 1.049-.328 1.967-.459 3.082a50.682 50.682 0 0 1-1.049-2.886c-.722.263-1.443.525-2.164.722 1.246-1.902 1.246-1.902-.394-3.541l2.361.393c.065-.852.131-1.508.262-2.426.394.787.722 1.442 1.049 2.164.853-.394 1.64-.722 2.624-1.181-.591.853-1.05 1.509-1.574 2.23Z"></path><path fill="#C22BAC" d="M79.95 123.536c1.443 0 1.443-2.23 0-2.23s-1.443 2.23 0 2.23ZM96.017 52.58c1.442 0 1.442-2.23 0-2.23-1.443.066-1.443 2.23 0 2.23ZM132.085 86.746c1.442 0 1.442-2.23 0-2.23-1.378 0-1.378 2.23 0 2.23ZM155.889 86.025c1.442 0 1.442-2.23 0-2.23-1.443.066-1.443 2.23 0 2.23ZM170.251 94.42c1.443 0 1.443-2.23 0-2.23s-1.443 2.23 0 2.23ZM164.218 113.502c1.442 0 1.442-2.23 0-2.23-1.443 0-1.443 2.23 0 2.23ZM150.513 115.142c1.442 0 1.442-2.23 0-2.23-1.443 0-1.443 2.23 0 2.23ZM161.53 138.553c1.443 0 1.443-2.23 0-2.23-1.442 0-1.442 2.23 0 2.23ZM125.791 171.997c1.443 0 1.443-2.229 0-2.229s-1.443 2.229 0 2.229ZM136.479 176.981c1.442 0 1.442-2.229 0-2.229-1.443.065-1.443 2.229 0 2.229ZM162.185 102.223c.722 0 .722-1.115 0-1.115-.656 0-.656 1.115 0 1.115ZM144.479 92.845c.722 0 .722-1.115 0-1.115-.721 0-.721 1.115 0 1.115ZM132.807 81.172c.721 0 .721-1.114 0-1.114-.722 0-.722 1.114 0 1.114ZM116.412 65.106c.721 0 .721-1.115 0-1.115s-.721 1.115 0 1.115ZM95.361 58.089c.722 0 .722-1.115 0-1.115-.721 0-.721 1.115 0 1.115ZM75.95 101.239c.72 0 .72-1.115 0-1.115-.722 0-.722 1.115 0 1.115ZM67.557 103.534c.721 0 .721-1.115 0-1.115-.722 0-.722 1.115 0 1.115ZM87.295 123.929c.721 0 .721-1.115 0-1.115s-.721 1.115 0 1.115ZM103.69 127.995c.722 0 .722-1.115 0-1.115-.721 0-.721 1.115 0 1.115Z"></path><path fill="#fff" d="M123.758 112.584c.721 0 .721-1.115 0-1.115-.722 0-.722 1.115 0 1.115ZM151.823 96.19c.722 0 .722-1.115 0-1.115-.721 0-.721 1.115 0 1.115ZM94.967 113.568c.722 0 .722-1.115 0-1.115-.655 0-.655 1.115 0 1.115Z"></path><path fill="#8559F9" d="M231.763 243.149c1.771 2.755 3.279 5.247 4.853 7.607 1.443 2.164 1.443 4.263.328 6.624-.394.721-.328 2.098.131 2.754 3.738 6.23 7.607 12.329 11.345 18.558 4 6.624 7.673 13.444 11.804 20.002 5.377 8.525 11.673 16.197 19.739 22.427 2.754 2.164 5.049 4.919 7.476 7.476 5.246 5.509 10.558 10.886 15.542 16.657 6.361 7.345 13.115 14.493 17.247 23.477 1.377 3.016 3.278 5.705 4.983 8.525 2.886 4.721 5.771 9.509 8.853 14.165 2.23 3.41 4.656 6.82 8.919 7.672 2.23.459 4.722.459 6.886-.065 11.279-2.623 21.772-7.083 31.346-13.575 2.557-1.771 4.787-4.066 6.886-6.361.721-.787 1.049-2.558.721-3.672-3.607-13.641-7.148-27.346-11.017-40.855-2.361-8.263-5.378-16.395-8.132-24.592-2.033-6.099-4.328-12.132-6.033-18.362-2.82-10.558-4.656-21.312-4.263-32.264.263-6.951-2.098-12.591-6.557-17.64-4.066-4.591-7.673-9.509-11.935-13.837-4.722-4.787-9.444-9.443-12.591-15.477-.853-1.639-2.82-2.819-4.46-4-9.64-6.623-19.345-13.115-29.051-19.739-1.114-.787-2.164-1.639-3.41-2.623-1.901 2.754-4 1.705-6.033.262a554.72 554.72 0 0 1-4.394-3.016c-.655 3.869-.262 4.59 2.689 6.361 6.427 3.869 12.788 7.869 19.28 11.673 2.558 1.508 5.246 2.885 8.066 3.934 4.984 1.837 7.804 5.64 10.165 10.099 4.328 8.132 8.853 16.133 13.181 24.264 1.18 2.164 2.098 4.525 3.148 6.755l-.787.393c-.459-.656-.919-1.311-1.312-2.033-4.918-9.181-10.033-18.23-14.689-27.542-2.886-5.837-7.214-9.509-12.985-12.329-7.607-3.804-14.886-8.394-22.231-12.657-3.541-2.032-7.016-4.197-10.558-6.229-.59-.328-1.639-.591-1.967-.328-2.426 2.164-4.59.524-6.755-.394-2.688-1.18-5.311-2.623-7.934-3.934-.197.131-.459.196-.656.327.656 1.705 1.115 3.542 1.967 5.115 1.574 2.755 3.738 4.919 6.689 6.427s5.443 4.066 8.46 5.509c7.935 3.738 16.001 7.344 24.132 10.623 4.656 1.902 8.197 4.591 10.362 9.181 5.246 11.214 10.558 22.297 15.869 33.445.131.262.131.59-.196 1.18-.525-.852-1.181-1.574-1.64-2.492-4.853-10.296-9.771-20.591-14.558-30.887-1.836-4-4.656-6.754-8.788-8.525-7.541-3.213-14.951-6.951-22.558-9.968-7.345-2.885-14.886-5.18-22.362-7.672-.459-.132-1.312 0-1.705.327-1.705 1.64-3.607 1.509-5.64.722-2.492-.918-4.918-1.836-7.41-2.754-.197.196-.459.327-.656.524.525 1.049.918 2.295 1.639 3.148 3.214 3.803 7.148 6.558 11.936 7.935 2.688.787 4.918 2.033 6.295 4.525 2.623 4.459 7.214 4.656 11.607 5.443 5.378.983 10.821 1.705 16.198 2.819 3.41.722 6.164 2.689 7.869 5.902 5.378 10.296 10.755 20.592 16.198 30.888 1.049 2.032 2.098 4.065 3.082 6.098-.197.131-.328.197-.524.328-.46-.721-.984-1.377-1.443-2.164-4.984-9.509-9.902-19.017-14.952-28.526-1.18-2.23-2.623-4.263-3.869-6.427-2.623-4.459-7.214-5.312-11.607-6.099-8.066-1.377-16.264-2.229-24.461-3.213-5.312-.656-10.623-1.115-15.935-1.508-.918-.066-1.902.656-2.754 1.18-.459.263-.787.984-1.246 1.115-3.542.918-7.017 0-10.427-.656 3.541-1.311 7.541 1.312 10.886-.983 0-.394-.066-.787-.066-1.181-3.738-.065-7.476-.197-11.214-.197-.262 0-.852 1.181-.787 1.64.984 4.722 4.394 7.476 8.394 9.312 2.033.984 4.46 1.377 6.755 1.508 3.41.263 6.361 1.05 9.246 3.017 5.968 4.066 12.591 6.492 19.87 7.017 1.705.131 3.41.328 4.984.852 3.804 1.181 5.115 4.459 6.165 7.87.786 2.623 1.508 5.311 2.032 8 1.312 6.164 4.525 11.148 9.247 15.214 4.328 3.804 5.508 9.05 5.705 14.427.131 3.869-3.213 5.64-7.279 4.328-5.115-1.639-9.05-4.984-12.329-8.984-6.033-7.279-12.197-14.165-21.443-17.575-4.46-1.639-7.804-5.049-11.083-8.459-3.738-3.869-8.525-5.771-14.493-5.837Z"></path><path fill="#8559F9" d="M236.353 257.117c-.065-1.639.328-3.541-.327-4.852-1.378-2.886-3.214-5.509-5.181-8.132-.459-.59-1.836-.525-2.82-.721 0 .852-.262 1.836.066 2.426 2.295 3.869 4.656 7.607 7.082 11.411.394 0 .787-.066 1.18-.132ZM239.829 190.884c4.131.852 7.672 4.394 12.328 3.082.066-.328.197-.656.263-.984-3.673-1.246-7.279-2.557-11.017-3.672-.459-.131-1.181.459-1.837.787.066.197.132.459.263.787ZM272.421 184.72c-5.049-2.033-9.64-3.804-14.82-5.837 1.901 3.148 12.394 7.279 14.82 5.837ZM290.128 185.244c-2.164-1.311-4.263-2.754-6.492-3.935-.525-.327-1.378 0-2.099.066.328.59.459 1.312.918 1.705 1.574 1.246 3.214 2.426 4.919 3.41 1.114.656 2.295.656 2.754-1.246Z"></path><path fill="#E2AEB5" d="M343.836 345.254c-2.361-.197-4.788-.525-6.689-2.164-.656-.525-1.509-1.181-.984-2.099.525-.918 1.508-.656 2.295-.328 1.246.459 2.492.918 4.066 1.443-.984-1.115-1.705-2.033-2.492-2.951l-1.18-2.164c0-.262-.066-.459-.066-.721-.065-.656-.262-1.443.525-1.771.721-.328 1.311.066 1.836.525.787.655 1.508 1.377 2.426 2.295-.131-1.115-.328-1.967-.393-2.82-.066-.787-.131-1.705.787-2.033.983-.328 1.377.59 1.77 1.181.394.524.394 1.311.984 1.77.197-.721.328-1.443.59-2.098.263-.722.787-1.312 1.64-1.246.852 0 1.246.721 1.442 1.442.591 1.968.263 3.869-.393 5.771-.59 1.705-1.377 3.279-2.23 4.853-.065.852-.524 1.312-1.442 1.246-.656-.131-1.574-.066-2.492-.131Z"></path><path fill="#428C8C" d="M367.706 362.829c-.262-.656.132-5.247-1.114-3.214 0 1.312-6.296 13.509-7.476 15.739-.787 2.295-2.886 4.918-2.164 7.41l-.132-.131c-.655.066-.459.918-.983 1.115-1.377-3.082-1.836-6.492-2.361-9.771 6.951-3.213 6.689-12.001 9.574-18.493-4.918 2.426-7.213 7.214-8.722 12.197l-.131-.131c-.393.131-.524.459-.59.853.59-3.345-1.574-8.656.853-11.411.393-.459 1.049-.721 1.114-1.508-.065-.066-.065-.066-.131-.066 3.476-3.016 4.066-7.607 4.984-11.738.131-.459.394-1.049 0-1.377-.59-.394-.983.131-1.377.59-3.148 3.869-5.443 8.001-6.099 12.984-.262.066-.524.263-.787.394-.655-4.328-2.426-8.263-4.131-12.263-.918 1.902-2.754.787-4.131 1.18.459.328.983.263 1.377.197 4.197-.852 4.262 6.558 5.771 9.246-3.148-3.606-6.624-6.885-11.476-8.131-.722-.197-1.509-.656-2.033 0-.853 1.246 1.836 5.049 2.754 6.033 2.098 3.148 7.345 5.836 10.951 4.853.459 5.246.459 10.492.263 15.738-2.099-5.049-5.64-9.049-9.706-12.591-.524-.786-1.18-1.377-2.229-1.377-1.771-.393-3.214-1.77-5.312-1.442 5.246 7.738 6.623 13.574 16.394 17.312.131.918 1.443.853 1.508 1.771.197 2.557.919 5.049 1.64 7.476-3.672-4.132-7.41-8.657-12.853-10.362-5.181-1.18-7.542-.524-2.492 3.738 1.639 1.64 3.082 3.476 5.049 4.787 1.377.787 2.558 1.968 4.263 2.23 1.574.131 2.754 1.574 4.459 1.443.262.131.525.328.787.328 3.607-.131 3.541 4.393 7.148 4.852-.787-1.573-3.148-2.098-2.426-4.065.852-2.296 2.492-4.001 4-5.902 4.525-4.984 7.541-11.87 5.967-18.493Z"></path><path fill="#FFB200" d="M276.684 291.087c-.065-.197-.065-.394-.065-.591.459-1.901-.394-4-2.23-4.787-.656-.262-1.443-.524-2.098-.393-2.099.459-3.148 2.361-2.492 4.262.918 2.623 2.754 3.607 4.984 2.689.327-.131.918-.393 1.114-.197.131.066.197.197.328.263.066-.459-.065-1.115.459-1.246ZM281.931 290.103c.196-.131.459-.197.721-.328 1.377-.852 2.164-2.754 1.705-4.197-.393-1.246-2.426-2.557-3.869-2.492-1.115.066-2.426 1.377-2.689 2.754-.393 1.771.328 3.017 2.033 3.935.328.131.59.459.787.787.394-.197.787-.262 1.312-.262v-.197Z"></path><path fill="#518A2F" d="M332.36 324.138c-.591.065-1.181.131-1.705.328-2.427.655-4.657.328-6.362-1.443a16.381 16.381 0 0 1-2.754-3.935c-1.246-2.426-2.229-4.984-3.279-7.476-.131-.262-.131-.655-.262-.918 2.098 3.345 3.082 7.214 5.509 10.558.655-4.524-2.033-10.492-6.034-13.443.132.787.263 1.443.328 2.098-.328-.327-.459-.721-.655-1.114-.132-.394-.263-.722-.394-1.115-.852 6.951 1.771 12.394 7.345 16.525l-.197.394c-1.836-.525-3.672-1.115-5.574-1.508-1.836-.394-2.361-1.64-2.689-3.345-.59-3.279-1.246-6.623-2.098-9.837-.984-3.606-3.017-6.623-5.706-9.18-.262-.263-.786-.328-1.18-.46-.131.394-.328.722-.393 1.115-.066.263 0 .525.065.853.394 4.59 1.705 8.984 4.132 12.919 1.311 2.164 2.688 4.197 4.065 6.361-1.705-.722-3.278-1.705-4.918-2.558-2.033-1.049-3.213-2.754-3.672-4.918-.853-4.591-2.033-9.115-4.591-13.05-1.049-1.574-2.033-3.082-3.607-4.197-.131.065-.196.131-.327.197 2.951 6.361 5.836 12.787 8.787 19.148-.131.066-.262.131-.328.197-.721-.525-1.443-.918-2.164-1.508-3.803-3.148-7.541-6.361-11.279-9.575-.459-.393-1.05-.918-1.181-1.442-.459-1.705-.787-3.41-1.115-5.05.132-.065.263-.131.394-.131-.525-.066-1.115-.131-1.64 0 .132.131.263.262.328.459.328 1.246.591 2.558.853 3.935-4.591-2.361-6.886-5.968-7.935-12.329-.525 0-.984.066-1.312.262.066.132.132.263.197.328.459 1.181.787 2.427 1.181 3.673.131.459.196.852.459 1.705-2.033-1.771-3.804-3.279-5.443-4.787a1.073 1.073 0 0 1-.263-.459c-.59.196-.393.852-.459 1.245 1.509 1.246 3.017 2.558 4.722 3.935-.525.066-.984.066-1.377 0 .131.328.197.59.262.853 1.64.262 3.148.721 4.394 1.901 2.098 1.968 4.328 3.738 6.492 5.64l2.754 2.361c-2.033-.066-3.934-.328-5.771-.656-.196.328-.262.656-.262 1.115.721-.328 1.508-.262 2.492 0 .787.197 1.639.328 2.426.459 1.902.262 3.476.984 4.919 2.295 1.574 1.508 3.279 2.886 4.918 4.263.525.393.984.787 1.508 1.246l-.196.393c-1.574-.524-3.148-1.18-4.788-1.639-2.229-.59-4.393-1.377-6.688-1.574-2.296-.197-4.525.656-6.755 2.164.59.066.787.131.984.197 3.606.262 7.148.655 10.754.655 5.902 0 10.952 2.165 15.805 5.902-.787.066-1.312.197-1.836.132-1.443-.132-2.886-.459-4.394-.525-4.722-.197-9.181.787-13.181 3.41-.394.262-1.05.918-.918 1.18.131.459.721.853 1.246 1.05 2.885 1.18 5.902 1.442 8.918.655 2.558-.655 4.853-1.836 6.755-3.737-5.378 1.311-10.821 2.36-16.395 2.164.328-.263.656-.394 1.049-.394 4.853 0 9.509-.787 14.165-2.23 1.902-.59 3.869-.852 5.771-1.18.197-.066.394-.066.525 0 2.623.918 5.246 1.902 7.672 2.82-6.033 3.476-12.197 7.082-18.493 10.755 3.083.787 5.902.524 8.394-1.377 2.361-1.837 4.525-3.935 6.755-5.902 2.295-2.033 4.59-3.87 8-3.083.984.197 2.099.066 3.148-.065.853-.131 1.639-.525 2.492-.787-.328-.525-.393-.721-.393-.918Zm-17.838-5.312c-2.492-5.836-5.049-11.607-7.541-17.444.131-.065.328-.131.459-.196 2.492 5.836 5.049 11.607 7.541 17.443-.131.066-.327.131-.459.197Z"></path><path fill="#FFB200" d="M290.39 298.3c3.082-1.311 4.065-4.262 2.295-6.689-.984-1.311-3.279-1.967-5.05-1.377-1.114.394-2.229 2.099-2.098 3.607.197 1.836 1.18 3.148 2.689 4.131.196.132.327.263.524.394.525-.197 1.049-.197 1.64-.066ZM287.57 306.366c-.328-.065-.721-.656-.852-1.049-.853-2.164-3.476-3.672-5.574-3.148-1.902.525-3.083 2.23-3.148 4.525-.066 1.902 1.115 3.476 2.885 4.132 1.64.524 4.132-.066 4.919-1.64.459-.918.918-1.443 1.573-1.705.066-.393.132-.787.263-1.115h-.066ZM278.192 295.218c-1.049-1.574-3.41-2.098-4.787-1.18-1.442.983-2.098 2.623-1.639 4.065.459 1.509 2.164 2.82 3.738 2.82 1.836 0 3.016-.918 3.607-2.688.131-.394.196-.787.393-1.246.131 0 .262.065.393.065a6.042 6.042 0 0 0-.262-.852c-.656-.066-1.049-.394-1.443-.984Z"></path><path fill="#518A2F" d="M303.047 335.024c.131.131.197.262.328.393l15.542-9.049c-.066-.132-.131-.263-.197-.328-6.755.328-12.001 3.344-15.673 8.984ZM301.079 317.055c-.197-.065-.394-.196-.59-.196-5.05-.328-10.099-.722-15.149-.984-.328 0-.721.328-1.049.525.262.328.525.787.853.918 5.311 1.967 10.623 2.164 15.935-.263ZM304.751 314.039c-2.82-6.099-5.443-11.87-8.132-17.64.131 6.885 2.558 12.787 8.132 17.64Z"></path><path fill="#FA5A84" d="M338.721 270.102c2.623-1.181 3.935-3.017 3.673-5.771-.328-2.82-2.099-4.328-4.788-4.918 1.312-1.181 4.197-.919 6.034.393 2.164 1.639 2.951 4.787 1.77 7.148-1.246 2.492-4 3.869-6.689 3.148Z"></path><path fill="#C22BAC" d="M252.618 269.839c2.886-1.639 5.968-.327 7.345 1.378 1.836 2.229 1.967 5.311.459 7.41-1.508 2.033-4.197 3.213-5.968 2.557 3.607-2.098 4.788-3.803 4.132-6.82-.656-2.951-2.755-4.393-5.968-4.525Z"></path><path fill="#DE8469" d="M303.31 268.528c-.197-3.148-1.64-5.049-4.853-5.509 1.443-.196 2.689-.721 3.607-1.836.918-1.115 1.115-2.426 1.18-3.869.328 2.754 1.246 5.05 4.525 5.705-3.148.591-4.131 2.755-4.459 5.509Z"></path><path fill="#DB8870" d="M317.933 296.923c-.394-.721-.722-1.377-1.705-1.639.918-.394 1.573-.787 1.573-1.968.525.918.853 1.705 1.902 1.902-.459.262-.852.394-1.115.656-.328.262-.262.656-.655 1.049Z"></path><path fill="#EEEFF2" d="M305.211 288.923c-.525 1.377-.066 2.36 1.049 3.606-1.443-.852-2.558-1.049-3.738-.131.59-1.377.066-2.426-1.115-3.541 1.509.525 2.623 1.049 3.804.066Z"></path><path fill="#146463" d="M325.473 278.496c.328.59.591 1.114 1.312 1.377 4.197 1.377 8 3.41 11.542 6.098.196.197.524.197.852.263.459-.197.656-.853 1.246-.59.853 2.557 2.82 4.328 4.459 6.361 1.574 1.967 2.755 4.197 4.197 6.229.328.263.459.656.722.919-.328 2.229.983 4 1.705 5.902 1.311 3.475 2.623 7.016 4.393 10.295.656 1.181 1.181 2.492 2.558 3.214.918.59.656 1.18.066 1.836-1.181-.787-2.033.262-3.083.459-.262-.328-.262-.722-.262-1.115-.065-.918-.918-.853-1.508-1.115-3.673-1.77-7.673-2.492-11.673-2.885-.262-.131-.393-.328-.459-.591.59-.983 1.574-.721 2.492-.721 4.328.131 8.263 1.574 12.132 3.476-1.181-1.836-1.968-3.935-3.541-5.509-.263-.459-.656-.918-.328-1.508.328-.066.59-.066.655.262-1.311-2.164-1.967-4.656-2.951-7.017-1.114-2.754-2.491-5.311-4.065-7.869-.591-.984-1.312-1.574-2.427-1.771-.459-.327-.787-.786-.852-1.377.393-.655.065-1.114-.394-1.574-2.688-2.95-5.639-5.574-9.181-7.541-.721-.393-1.377-.328-2.098-.393-.394-.197-.262-.853-.853-.918-2.36-1.64-5.115-2.099-7.738-2.886-1.115-.328-2.295-.328-3.41-.656-.983-1.639.787-1.377 1.377-1.967.918.393 1.837.984 2.951.984-1.18-1.05-2.492-1.902-3.738-2.951-.262-.263-.524-.525-.524-.918.065-.132.131-.197.262-.328 2.558.721 4.263 2.754 6.164 4.525Z"></path><path fill="#FFB200" d="M328.883 315.875c.393-1.574 1.902-.59 2.82-1.181-.591-.786-2.296-1.377-1.377-2.492.786-.918 1.77.46 2.623.919.131.065.328.196.655.393-.262-.918-.787-1.639-.721-2.492 0-.59 0-1.311.787-1.443.721-.131.918.459 1.115.984.262.656.459 1.377.787 2.295.524-1.049.59-2.164 1.377-2.82.393-.327.787-.655 1.311-.327.459.262.459.721.328 1.18-.328.918-.655 1.771-1.114 3.148 1.049-.787 1.639-1.377 2.491-1.574.656-.197 1.443-.328 1.771.393.394.722-.393 1.05-.852 1.443-.197.197-.46.328-.919.656.722.065 1.181.131 1.64.196.197.132.393.263.59.46 1.049 2.36-1.115 1.246-1.902 1.77.263.853 1.902 1.705.918 2.492-1.18.918-2.032-.787-3.278-1.246.262 1.312 1.377 2.689.131 4-1.968-.524-1.509-2.426-2.296-3.869-.393 1.115-.262 2.295-1.049 3.148-.393.393-.787.853-1.442.525-.525-.263-.46-.853-.328-1.312.328-.918.655-1.771 1.18-3.017-1.049.591-1.705 1.378-2.689 1.574-.59.132-1.311.394-1.639-.262-.394-.721.328-1.049.787-1.443.262-.196.721-.262.787-.787-.853-.393-1.902-.393-2.492-1.311Z"></path><path fill="#2A1F3F" d="M358.458 318.432c-.197 2.033.984 2.492 2.623 3.345-4.131-5.705 4.132-17.313-6.361-23.084 3.279 6.165 1.115 13.378 3.738 19.739ZM339.113 286.234c3.869-2.033-6.886-14.296-10.099-14.821 1.311 6.23 6.623 9.902 10.099 14.821ZM349.146 298.628c.197.197.197.59.656.459 2.427-6.558-2.426-12.394-6.23-17.313-.262 6.23 4.328 10.952 5.574 16.854ZM319.177 274.036c2.164 1.377 3.869 3.41 6.23 4.46-.787-4.525-5.115-7.673-8.919-9.313.459 1.902 1.509 3.411 2.689 4.853ZM351.506 319.088c-4.524-.262-8.525 1.115-11.935 4.132 3.082 0 24.461-1.837 11.935-4.132ZM343.9 301.054c-1.574-.983-3.213-1.77-5.115-1.836 4.591 4.591 6.689 11.739 13.903 12.919-1.574-4.591-4.656-8.46-8.788-11.083ZM327.571 291.873c5.443 1.05 10.427 5.902 16.067 2.492-4.263-5.246-14.231-4.787-16.067-2.492ZM330.26 282.561c-4.394-.262-8.918-.852-12.722 2.099 3.672 1.311 12.657 1.77 12.722-2.099Z"></path><path fill="#EEEFF2" d="M328.621 304.792c.524-1.377.065-2.361-1.05-3.607 1.443.853 2.558 1.05 3.738.132-.59 1.377-.065 2.426 1.115 3.541-1.508-.525-2.623-1.115-3.803-.066Z"></path><path fill="#E2AEB5" d="M336.752 316.99c-.59.328-1.115.393-1.574 0-.459-.328-.459-.853-.065-1.312.524-.459 1.049-.262 1.442.131.328.394.394.787.197 1.181Z"></path><path fill="#FFB200" d="M307.636 278.233c.393-1.574 1.901-.59 2.82-1.18-.591-.787-2.296-1.377-1.378-2.492.787-.918 1.771.459 2.624.918.131.065.327.197.655.393-.262-.918-.787-1.639-.721-2.492 0-.59 0-1.311.787-1.442.721-.132.918.459 1.115.983.262.656.459 1.377.787 2.296.524-1.05.59-2.165 1.377-2.82.393-.328.787-.656 1.311-.328.459.262.459.721.328 1.18-.328.918-.656 1.771-1.115 3.148 1.05-.787 1.64-1.377 2.492-1.574.656-.197 1.443-.328 1.771.394.393.721-.393 1.049-.853 1.442-.196.197-.459.328-.918.656.722.066 1.181.131 1.64.197.197.131.393.262.59.459 1.049 2.361-1.115 1.246-1.902 1.77.263.853 1.902 1.705.918 2.492-1.18.918-2.033-.787-3.279-1.246.263 1.312 1.378 2.689.132 4.001-1.968-.525-1.509-2.427-2.296-3.869-.393 1.114-.262 2.295-1.049 3.147-.393.394-.787.853-1.443.525-.524-.262-.459-.853-.327-1.312.327-.918.655-1.77 1.18-3.016-1.049.59-1.705 1.377-2.689 1.574-.59.131-1.311.393-1.639-.263-.394-.721.328-1.049.787-1.442.262-.197.721-.263.787-.787-.853-.328-1.902-.394-2.492-1.312Z"></path><path fill="#E2AEB5" d="M315.505 279.414c-.59.327-1.115.393-1.574 0-.459-.328-.459-.853-.066-1.312.525-.459 1.05-.262 1.443.131.394.394.394.787.197 1.181Z"></path><path fill="#DE8469" d="M325.999 348.533c-.197-3.148-1.639-5.05-4.853-5.509 1.443-.196 2.689-.721 3.607-1.836.918-1.115 1.115-2.426 1.181-3.869.328 2.754 1.246 5.05 4.525 5.705-3.148.591-4.132 2.755-4.46 5.509ZM379.576 379.42c-.197-3.148-1.64-5.05-4.853-5.509 1.443-.196 2.689-.721 3.607-1.836.918-1.115 1.115-2.426 1.18-3.869.328 2.754 1.246 5.05 4.525 5.705-3.148.591-4.131 2.755-4.459 5.509Z"></path><path fill="#FFB200" d="M316.622 347.746c1.443 0 1.443-2.23 0-2.23-1.443.066-1.443 2.23 0 2.23ZM319.441 304.005c1.443 0 1.443-2.229 0-2.229-1.377 0-1.377 2.229 0 2.229ZM326.59 267.675c1.443 0 1.443-2.229 0-2.229s-1.443 2.229 0 2.229ZM352.23 275.151c1.443 0 1.443-2.229 0-2.229-1.442 0-1.442 2.229 0 2.229ZM352.558 289.382c1.442 0 1.442-2.23 0-2.23-1.443 0-1.443 2.23 0 2.23ZM359.706 333.188c1.443 0 1.443-2.23 0-2.23s-1.443 2.23 0 2.23ZM368.559 345.975c1.442 0 1.442-2.229 0-2.229-1.377 0-1.377 2.229 0 2.229ZM365.739 328.925c1.442 0 1.442-2.23 0-2.23-1.443 0-1.443 2.23 0 2.23ZM272.225 276.66c1.049 0 1.049-1.64 0-1.64-1.115 0-1.115 1.64 0 1.64ZM317.276 291.48c1.049 0 1.049-1.639 0-1.639-1.115 0-1.115 1.639 0 1.639ZM323.113 297.317c1.05 0 1.05-1.64 0-1.64-1.114 0-1.114 1.64 0 1.64ZM347.967 327.023c1.049 0 1.049-1.639 0-1.639-1.049-.066-1.049 1.639 0 1.639ZM363.378 319.613c1.049 0 1.049-1.639 0-1.639-1.049-.066-1.049 1.639 0 1.639ZM370.264 336.008c1.049 0 1.049-1.64 0-1.64s-1.049 1.64 0 1.64ZM330.524 363.025c1.049 0 1.049-1.639 0-1.639-1.115 0-1.115 1.639 0 1.639ZM362.854 336.27c.721 0 .721-1.115 0-1.115-.722 0-.722 1.115 0 1.115ZM345.869 279.02c.721 0 .721-1.114 0-1.114s-.721 1.114 0 1.114ZM327.311 332.532c.721 0 .721-1.115 0-1.115-.722.066-.722 1.115 0 1.115ZM328.884 261.511c.722 0 .722-1.115 0-1.115-.655.066-.655 1.115 0 1.115Z"></path><path fill="#FA5A84" d="M281.472 90.615c-5.509-5.114-28.33 10.231-48.594 25.707l1.968.59c1.836.59 3.607 1.181 5.312 1.771 7.213-5.509 33.116-25.182 38.428-26.887.459-.131 1.64-.525 2.033-.066.918 1.115-3.213 5.968-4.131 6.755-5.443 5.377-14.952 16.132-18.952 21.05-5.443 6.558-17.444 16.329-21.051 19.346-30.034 25.05-56.134 47.675-90.432 65.578-7.607 3.934-20.329 9.508-28.985 12.984 2.361-4.131 4.656-7.738 8.263-11.345 2.951-2.951 6.82-6.099 10.23-8.984-1.639-1.312-3.082-2.886-4.656-4.197l-.197-.197c-7.344 6.886-34.166 30.69-13.181 31.15 20.985-4.853 52.659-23.674 69.513-37.511 17.312-13.443 94.956-73.775 95.612-91.678 0-.852.065-2.82-1.18-4.066ZM260.684 209.574l-.59-.59c-.197-.197-.328-.46-.459-.722a10.452 10.452 0 0 1-1.64-2.164c-2.557 2.033-5.312 4.197-8.197 6.558.656.131 1.311.328 1.967.459.525 0 1.049.066 1.574.131l.787.197c.852.131 1.639.197 2.492.328 1.574-1.246 3.148-2.492 4.787-3.738a4.447 4.447 0 0 1-.721-.459ZM267.962 198.294c1.836.328 3.541.984 5.246 1.705.328.132.59.328.787.525.459-.328.918-.656 1.443-.984-1.181-.655-2.099-1.705-3.345-2.295a3.347 3.347 0 0 1-1.377-1.115c-.197.131-.328.263-.524.394-.656.59-1.378 1.115-2.23 1.77ZM285.209 192.917c.59-.393 1.18-.787 1.77-1.115a9.281 9.281 0 0 1-2.295-1.508c-.721-.525-1.442-1.18-2.098-1.771-.197-.196-.394-.459-.59-.721-.787.525-1.574 1.115-2.361 1.639 1.902.722 3.672 1.771 5.377 3.279l.197.197Z"></path><path fill="#FA5A84" d="M331.901 163.276c-12.657 2.885-29.641 11.541-43.937 20.657.656.393 1.049.918 1.377 1.574.131.065.328.196.328.196.065.066.393.197.393.197.066 0 .394.131.459.197.131 0 .328.065.459.065 1.181.197 1.968.853 2.361 1.64 4.263-2.558 8.656-5.05 13.247-7.41 6.689-3.476 18.034-8.394 25.706-11.477-2.098 3.673-4.131 6.886-7.344 10.099-2.624 2.624-6.099 5.378-9.116 8.001a32.373 32.373 0 0 1 2.164 1.967l-2.164-1.967-92.792 69.512c-6.361 4.853-29.379 22.362-34.101 23.871-.393.131-1.442.459-1.77.065-.853-.983 2.885-5.246 3.672-5.967 4.787-4.788 13.247-14.362 16.854-18.69 4.787-5.771 15.476-14.493 18.689-17.116 5.968-4.984 11.739-9.836 17.444-14.492-1.115-.263-2.295-.525-3.41-.656-.328-.066-.59-.131-.853-.263-.196 0-.393.066-.59.066-.59 0-1.18-.131-1.639-.393-24.133 20.066-51.61 44.986-51.938 54.954 0 .787-.065 2.557 1.049 3.606 4.722 4.46 24.002-8.328 41.642-21.64l.197.131 91.743-69.25.131.131c6.493-6.099 30.297-27.215 11.739-27.608ZM166.186 236.788c-.394-2.229-1.377-3.213-4.066-3.672 2.558-.459 4-1.639 4.132-4.066.327-.262.327.066.393.197.197 2.23 1.574 3.344 3.672 3.804-2.033.327-3.344 1.442-3.672 3.475-.131.197-.197.459-.459.262ZM194.975 233.641c2.295-1.05 3.541-2.689 3.279-5.115-.263-2.492-1.836-3.869-4.263-4.328 1.181-1.05 3.738-.853 5.312.327 1.967 1.443 2.623 4.263 1.574 6.361-1.049 2.23-3.476 3.41-5.902 2.755ZM228.026 196.589c-.525-3.147-1.902-4.525-5.771-5.18 3.607-.656 5.64-2.361 5.771-5.706.459-.327.459.066.524.328.328 3.082 2.164 4.722 5.181 5.378-2.885.459-4.656 2.033-5.181 4.918-.065.197-.131.59-.524.262ZM196.811 218.951c1.246 0 1.246-1.967 0-1.967-1.312 0-1.312 1.967 0 1.967ZM171.629 207.803c1.246 0 1.246-1.967 0-1.967s-1.246 1.967 0 1.967ZM186.384 244.068c1.246 0 1.246-1.968 0-1.968s-1.246 1.968 0 1.968ZM211.566 224.132c1.246 0 1.246-1.967 0-1.967s-1.246 1.967 0 1.967ZM230.321 181.441c1.246 0 1.246-1.968 0-1.968s-1.246 1.968 0 1.968ZM246.714 179.014c1.246 0 1.246-1.967 0-1.967-1.311 0-1.311 1.967 0 1.967ZM276.618 156.259c1.246 0 1.246-1.967 0-1.967s-1.246 1.967 0 1.967ZM281.013 175.867c1.246 0 1.246-1.968 0-1.968s-1.246 1.968 0 1.968ZM164.875 185.835c1.246 0 1.246-1.968 0-1.968-1.311 0-1.311 1.968 0 1.968ZM170.841 182.162c.656 0 .656-.983 0-.983-.655 0-.655.983 0 .983ZM182.449 201.311c.656 0 .656-.984 0-.984s-.656.984 0 .984ZM181.203 212.853c.656 0 .656-.984 0-.984-.59 0-.59.984 0 .984ZM211.96 216.853c.655 0 .655-.984 0-.984-.656 0-.656.984 0 .984ZM183.236 232.001c.656 0 .656-.983 0-.983s-.656.983 0 .983ZM201.598 243.609c.656 0 .656-.984 0-.984-.655 0-.655.984 0 .984ZM220.747 192.13c.655 0 .655-.984 0-.984-.656 0-.656.984 0 .984ZM225.926 179.342c.656 0 .656-.983 0-.983-.655 0-.655.983 0 .983ZM231.895 169.768c.656 0 .656-.984 0-.984-.59 0-.59.984 0 .984ZM252.683 186.097c.656 0 .656-.984 0-.984s-.656.984 0 .984ZM283.046 162.555c.655 0 .655-.984 0-.984-.656 0-.656.984 0 .984ZM213.14 199.671c.656 0 .656-.983 0-.983-.59 0-.59.983 0 .983Z"></path></g></g><defs><clipPath id="a"><path fill="#fff" d="M0 0h446v446H0z"></path></clipPath><clipPath id="b"><path fill="#fff" d="M42.638-1.849h360.546v450.322H42.638z"></path></clipPath></defs></svg>